<svg width="43" height="43" viewBox="0 0 43 43" fill="none" xmlns="http://www.w3.org/2000/svg">
    <circle cx="21.5" cy="21.5" r="21.5" fill="white"/>
    <path fill-rule="evenodd" clip-rule="evenodd" d="M21.5894 12.0868C21.0525 12.3515 21.0082 13.2072 21.5143 13.5389C21.6182 13.6071 21.8613 13.6481 22.4487 13.6967C23.761 13.8054 24.6994 14.0524 25.691 14.5501C30.2069 16.8172 31.6937 22.4669 28.8787 26.6633C27.8874 28.1411 26.3418 29.3166 24.6474 29.8813C23.9265 30.1216 23.4342 30.2159 22.4622 30.2998C21.8687 30.351 21.615 30.3941 21.513 30.461C21.0042 30.7945 21.0545 31.6564 21.5978 31.9143C21.811 32.0155 22.4697 32.0287 23.1435 31.9452C25.3369 31.6736 27.3022 30.7488 28.8819 29.245C31.6727 26.5883 32.6931 22.6108 31.5227 18.9525C30.3288 15.2208 27.0732 12.5405 23.1435 12.0538C22.474 11.9709 21.7953 11.9853 21.5894 12.0868ZM18.1672 12.7495C17.8085 12.9058 17.5778 13.356 17.6736 13.7122C17.8418 14.3369 18.5494 14.5781 19.0148 14.1692C19.3534 13.8718 19.4233 13.5248 19.2214 13.1429C19.0176 12.7574 18.5498 12.5828 18.1672 12.7495ZM15.2472 14.7122C15.0289 14.7755 14.7305 15.1148 14.6864 15.35C14.6059 15.7795 14.9375 16.2727 15.3602 16.3521C15.9217 16.4574 16.4566 15.9223 16.3513 15.3606C16.3043 15.1099 16.0001 14.7765 15.7567 14.7089C15.5356 14.6475 15.4688 14.6479 15.2472 14.7122ZM13.2756 17.702C13.0086 17.7972 12.7452 18.0834 12.6993 18.3283C12.592 18.9004 13.1188 19.4282 13.6902 19.3209C13.9547 19.2713 14.2754 18.969 14.3474 18.7016C14.5161 18.0748 13.8838 17.4851 13.2756 17.702ZM26.6566 18.7258C26.5993 18.7568 25.34 19.9924 23.8582 21.4713L21.1639 24.1604L20.1355 23.1376C19.5698 22.575 19.0558 22.0888 18.9933 22.0571C18.9307 22.0255 18.7667 21.9996 18.6288 21.9997C18.1597 22.0001 17.832 22.328 17.8316 22.7973C17.8315 22.9352 17.8573 23.0992 17.889 23.1619C17.971 23.3239 20.6404 26.0018 20.8096 26.0916C20.9899 26.1874 21.3372 26.1874 21.5177 26.0917C21.595 26.0507 23.0333 24.6386 24.714 22.9536C26.8113 20.851 27.7809 19.8442 27.8053 19.7437C27.9027 19.3434 27.7209 18.9069 27.3917 18.7506C27.1891 18.6545 26.8114 18.6417 26.6566 18.7258ZM12.4125 21.2846C12.1426 21.4665 12 21.7137 12 21.9995C12 22.6353 12.7428 23.0589 13.2536 22.7144C13.8076 22.341 13.8076 21.658 13.2536 21.2846C13.1328 21.2031 13.0016 21.1662 12.8331 21.1662C12.6645 21.1662 12.5333 21.2031 12.4125 21.2846ZM13.1596 24.7582C12.8179 24.9133 12.6202 25.321 12.7033 25.6993C12.7559 25.9393 13.0649 26.2588 13.3073 26.3241C14.0865 26.534 14.697 25.5838 14.1693 24.9824C13.8809 24.6538 13.5507 24.5805 13.1596 24.7582ZM15.2011 27.6973C15.1146 27.735 14.9714 27.8485 14.8826 27.9496C14.5755 28.2995 14.6079 28.7777 14.9604 29.0962C15.3249 29.4257 15.7995 29.4003 16.1307 29.0336C16.5192 28.6035 16.4026 27.9825 15.8866 27.7326C15.6321 27.6094 15.427 27.5988 15.2011 27.6973ZM18.1657 29.7003C17.6183 29.9553 17.4889 30.5788 17.8889 31.0345C18.274 31.4734 19.0006 31.3651 19.2422 30.8329C19.3671 30.5576 19.366 30.3646 19.2379 30.1022C19.0382 29.693 18.5634 29.515 18.1657 29.7003Z" fill="#005BA5"/>
</svg>
