<svg width="43" height="43" viewBox="0 0 43 43" fill="none" xmlns="http://www.w3.org/2000/svg">
    <circle cx="21.5" cy="21.5" r="21.5" fill="white"/>
    <path fill-rule="evenodd" clip-rule="evenodd" d="M29.6501 14.1118C29.5355 14.174 27.017 16.6472 24.0533 19.6076L18.6647 24.9903L16.6078 22.943C15.4765 21.8169 14.4485 20.8437 14.3234 20.7802C14.1982 20.7168 13.8702 20.6651 13.5945 20.6653C12.6562 20.6661 12.0007 21.3224 12 22.2618C11.9998 22.5378 12.0513 22.8663 12.1148 22.9916C12.2788 23.316 17.6176 28.6763 17.956 28.8562C18.3166 29.0479 19.0114 29.0479 19.3722 28.8564C19.5268 28.7742 22.4035 25.9475 25.7649 22.5747C29.9595 18.3659 31.8987 16.3506 31.9476 16.1494C32.1423 15.3481 31.7788 14.4744 31.1203 14.1615C30.7153 13.9692 29.9597 13.9436 29.6501 14.1118Z" fill="#005BA5"/>
</svg>
