<svg width="152" height="152" viewBox="0 0 152 152" fill="none" xmlns="http://www.w3.org/2000/svg">
    <path fill-rule="evenodd" clip-rule="evenodd" d="M36.4802 15.4021C17.5413 23.8538 1.66283 31.1378 1.19508 31.589C0.682146 32.0837 0.25992 33.0028 0.131865 33.9038C0.0151931 34.7257 -0.0331822 54.176 0.0240867 77.1267C0.128309 118.727 0.130798 118.858 0.867469 119.861C1.46399 120.673 8.30958 123.859 36.4382 136.42C55.5956 144.974 71.6917 151.985 72.2071 152C72.7225 152.014 74.4161 151.389 75.9705 150.61C79.269 148.957 80.2486 147.669 79.8452 145.516C79.3319 142.776 76.4383 141.665 73.5972 143.116L72.2178 143.82L39.9996 129.494L7.78171 115.168L7.77887 77.6868C7.77745 57.072 7.8372 40.2056 7.9119 40.2056C7.98624 40.2056 22.2708 46.5356 39.6549 54.2722C58.9606 62.8638 71.6796 68.3352 72.3334 68.3295C72.9573 68.3245 86.5432 62.47 104.885 54.3028L136.365 40.2854L136.543 56.7159C136.73 74.0306 136.736 74.0961 138.403 75.2649C139.301 75.8945 141.592 75.9956 142.609 75.4504C144.36 74.5124 144.368 74.4077 144.368 52.8709V32.7385L143.39 31.6951C142.037 30.2525 73.8875 -0.0526365 72.1143 6.86662e-05C71.3591 0.022504 58.1574 5.72856 36.4802 15.4021ZM83.5777 13.0357C89.6211 15.7201 94.4463 18.0299 94.3005 18.1684C94.1546 18.3073 81.0013 24.216 65.0706 31.2995L36.1056 44.1777L24.9727 39.2537C18.8499 36.5454 13.8405 34.2495 13.8412 34.1516C13.8423 33.918 71.4804 8.23739 72.1079 8.19074C72.3732 8.17116 77.5346 10.3513 83.5777 13.0357ZM117.553 28.1546C124.672 31.3198 130.496 34.0181 130.496 34.1502C130.496 34.4009 72.8431 60.1481 72.2825 60.1481C72.1072 60.1481 66.0545 57.516 58.8322 54.2989L45.7005 48.45L46.9248 47.8781C51.0777 45.9384 104.052 22.4322 104.303 22.4176C104.472 22.408 110.435 24.9895 117.553 28.1546ZM108.65 76.1872C100.267 77.507 91.7661 81.9809 86.1903 88.0064C81.9766 92.56 78.7521 98.5403 77.0942 104.876C76.3892 107.571 76.2636 108.926 76.2576 113.922C76.2512 118.976 76.3675 120.242 77.0899 122.979C80.0981 134.377 87.2923 143.207 97.5926 148.143C106.223 152.279 115.513 153.07 124.555 150.437C139.438 146.105 150.106 133.26 151.824 117.607C152.247 113.742 151.892 108.697 150.926 104.884C147.317 90.6327 136.089 79.7491 121.814 76.663C118.734 75.9971 111.514 75.736 108.65 76.1872ZM118.757 84.0321C125.295 85.0926 130.292 87.7211 135.298 92.7327C139.265 96.7045 140.935 99.3512 142.601 104.307C145.341 112.454 144.658 120.316 140.513 128.344C139.16 130.965 138.209 132.199 135.299 135.111C131.366 139.046 128.27 141.038 123.737 142.548C112.603 146.256 101.11 143.562 92.7638 135.289C89.1356 131.692 86.8673 128.043 85.2363 123.181C84.1429 119.921 84.1016 119.584 84.1016 113.922C84.1016 108.26 84.1429 107.923 85.2363 104.663C88.056 96.2547 94.2034 89.5455 102.347 85.9883C106.959 83.9741 113.552 83.1881 118.757 84.0321ZM127.65 102.771C127.356 102.875 123.316 106.747 118.67 111.374L110.224 119.788L106.576 116.161C102.803 112.409 101.525 111.607 99.8929 111.966C98.7973 112.207 97.2532 113.722 96.8954 114.907C96.3853 116.596 97.3557 117.989 102.844 123.44C108.344 128.902 109.291 129.541 111.198 129.071C112.28 128.805 131.603 109.81 132.478 108.153C133.348 106.504 133.123 105.085 131.776 103.737C130.586 102.545 129.202 102.221 127.65 102.771Z" fill="#005BA5"/>
</svg>
