<svg width="77" height="75" viewBox="0 0 77 75" fill="none" xmlns="http://www.w3.org/2000/svg">
    <ellipse cx="38.5" cy="37.5" rx="38.5" ry="37.5" fill="#005BA5"/>
    <path fill-rule="evenodd" clip-rule="evenodd" d="M51.1226 25.1863C50.9336 25.2901 46.778 29.412 41.8879 34.3461L32.9968 43.3172L29.6028 39.905C27.7362 38.0281 26.04 36.4062 25.8336 36.3004C25.6271 36.1947 25.0859 36.1086 24.6309 36.1089C23.0828 36.1101 22.0012 37.204 22 38.7696C21.9997 39.2297 22.0847 39.7771 22.1893 39.986C22.46 40.5267 31.2691 49.4605 31.8274 49.7603C32.4224 50.0798 33.5687 50.0798 34.1641 49.7606C34.4193 49.6237 39.1658 44.9126 44.7121 39.2912C51.6331 32.2765 54.8329 28.9176 54.9135 28.5824C55.2348 27.2469 54.635 25.7907 53.5486 25.2692C52.8802 24.9486 51.6335 24.9061 51.1226 25.1863Z" fill="#F1F1F1"/>
</svg>
