<svg width="77" height="75" viewBox="0 0 77 75" fill="none" xmlns="http://www.w3.org/2000/svg">
    <ellipse cx="38.5" cy="37.5" rx="38.5" ry="37.5" fill="#005BA5"/>
    <path fill-rule="evenodd" clip-rule="evenodd" d="M38.3019 21.1476C37.3892 21.5975 37.314 23.0523 38.1743 23.6161C38.351 23.732 38.7643 23.8018 39.7628 23.8844C41.9937 24.0691 43.5889 24.489 45.2746 25.3352C52.9518 29.1892 55.4794 38.7938 50.6938 45.9277C49.0085 48.4399 46.3811 50.4381 43.5007 51.3982C42.2751 51.8067 41.4381 51.967 39.7858 52.1096C38.7769 52.1967 38.3454 52.27 38.1721 52.3837C37.3071 52.9506 37.3927 54.4158 38.3163 54.8543C38.6787 55.0264 39.7985 55.0488 40.9439 54.9069C44.6727 54.4451 48.0138 52.873 50.6992 50.3166C55.4435 45.8001 57.1783 39.0384 55.1886 32.8193C53.1589 26.4753 47.6245 21.9188 40.9439 21.0914C39.8057 20.9505 38.652 20.975 38.3019 21.1476ZM32.4843 22.2742C31.8745 22.5399 31.4822 23.3052 31.6452 23.9107C31.9311 24.9728 33.1339 25.3827 33.9252 24.6877C34.5008 24.1821 34.6196 23.5922 34.2764 22.943C33.9298 22.2875 33.1347 21.9908 32.4843 22.2742ZM27.5203 25.6107C27.1491 25.7184 26.6419 26.2951 26.567 26.6949C26.43 27.4252 26.9938 28.2637 27.7123 28.3985C28.6668 28.5777 29.5763 27.6679 29.3972 26.713C29.3173 26.2869 28.8001 25.7201 28.3863 25.6051C28.0106 25.5008 27.8969 25.5015 27.5203 25.6107ZM24.1685 30.6934C23.7147 30.8553 23.2669 31.3418 23.1888 31.7582C23.0064 32.7308 23.902 33.6279 24.8734 33.4456C25.323 33.3612 25.8682 32.8473 25.9907 32.3927C26.2774 31.3272 25.2025 30.3247 24.1685 30.6934ZM46.9162 32.4338C46.8188 32.4866 44.678 34.587 42.1589 37.1012L37.5787 41.6726L35.8303 39.9339C34.8687 38.9775 33.9949 38.151 33.8886 38.0971C33.7822 38.0433 33.5034 37.9994 33.269 37.9995C32.4715 38.0002 31.9143 38.5575 31.9137 39.3553C31.9135 39.5898 31.9573 39.8687 32.0113 39.9751C32.1507 40.2507 36.6887 44.8031 36.9763 44.9558C37.2828 45.1186 37.8733 45.1186 38.18 44.956C38.3115 44.8862 40.7566 42.4856 43.6138 39.6211C47.1791 36.0467 48.8275 34.3351 48.869 34.1643C49.0345 33.4837 48.7255 32.7417 48.1659 32.476C47.8216 32.3127 47.1793 32.291 46.9162 32.4338ZM22.7012 36.7838C22.2424 37.093 22 37.5132 22 37.9992C22 39.08 23.2627 39.8001 24.1312 39.2145C25.073 38.5797 25.073 37.4187 24.1312 36.7838C23.9258 36.6452 23.7027 36.5825 23.4162 36.5825C23.1297 36.5825 22.9066 36.6452 22.7012 36.7838ZM23.9713 42.6889C23.3904 42.9526 23.0544 43.6458 23.1956 44.2889C23.2851 44.6968 23.8103 45.2399 24.2224 45.351C25.547 45.7078 26.5849 44.0924 25.6878 43.0701C25.1975 42.5115 24.6362 42.3868 23.9713 42.6889ZM27.4418 47.6855C27.2949 47.7495 27.0513 47.9425 26.9005 48.1143C26.3783 48.7092 26.4335 49.5221 27.0326 50.0636C27.6523 50.6237 28.4592 50.5805 29.0222 49.9572C29.6826 49.226 29.4845 48.1702 28.6072 47.7454C28.1746 47.5359 27.826 47.518 27.4418 47.6855ZM32.4817 51.0905C31.5511 51.5241 31.3311 52.584 32.0112 53.3587C32.6658 54.1047 33.901 53.9207 34.3117 53.0159C34.5241 52.548 34.5223 52.2198 34.3045 51.7738C33.965 51.0781 33.1578 50.7755 32.4817 51.0905Z" fill="#F1F1F1"/>
</svg>
