<svg width="27" height="27" viewBox="0 0 27 27" fill="none" xmlns="http://www.w3.org/2000/svg">
    <g clip-path="url(#clip0_16_453)">
        <path d="M26.3829 23.3983L20.0706 17.086C21.5061 14.955 22.2143 12.2925 21.8351 9.45536C21.1886 4.62964 17.2335 0.702511 12.4031 0.09095C5.22117 -0.817822 -0.817971 5.22132 0.0908531 12.4032C0.702572 17.2358 4.63023 21.194 9.45648 21.8374C12.2936 22.2165 14.9567 21.5085 17.0871 20.0729L23.3994 26.3852C24.2232 27.2089 25.5589 27.2089 26.3826 26.3852C27.2056 25.5604 27.2056 24.221 26.3829 23.3983ZM4.17123 10.9688C4.17123 7.24685 7.19924 4.21884 10.9212 4.21884C14.6432 4.21884 17.6712 7.24685 17.6712 10.9688C17.6712 14.6908 14.6432 17.7188 10.9212 17.7188C7.19924 17.7188 4.17123 14.6919 4.17123 10.9688Z" fill="#808080"/>
    </g>
    <defs>
        <clipPath id="clip0_16_453">
            <rect width="27" height="27" fill="white"/>
        </clipPath>
    </defs>
</svg>
