<svg width="55" height="49" viewBox="0 0 55 49" fill="none" xmlns="http://www.w3.org/2000/svg">
    <path fill-rule="evenodd" clip-rule="evenodd" d="M26.9623 0.172623C25.3086 0.417758 23.6636 0.88898 21.9092 1.62C18.8976 2.87482 15.2831 5.34217 15.1569 6.22956C15.119 6.49565 15.3606 7.07373 15.7712 7.69866C16.1818 8.32359 16.7356 8.1902 17.0917 8.1902C17.8061 8.1902 18.8439 7.66418 18.8439 7.66418C20.7027 6.31185 23.5935 4.88637 25.7724 4.24773C30.9137 2.74092 36.9706 3.85898 41.9353 7.23144C43.4917 8.28873 46.5159 11.3724 47.5134 12.9192C50.9191 18.201 51.9088 24.4251 50.2582 30.1821C47.9101 38.3721 40.5184 44.5511 32.1978 45.2799C27.4198 45.6983 23.2389 44.5814 19.0619 41.7709C16.711 40.189 16.581 40.185 15.5321 41.6611C14.6518 42.8998 14.7278 43.2398 16.1144 44.2717C18.8393 46.2993 21.846 47.7305 25.1128 48.5546C26.6894 48.9525 27.502 49 30.4836 48.9996C34.5681 48.9916 36.2483 48.7001 39.2998 47.4703C42.6957 46.1016 45.2848 44.3769 47.8243 41.7914C51.1503 38.4056 53.1141 34.9084 54.251 30.3472C54.8908 27.7805 55.0623 23.3768 54.6266 20.6988C52.8965 10.0628 44.4259 1.68038 33.8757 0.164433C32.3248 -0.0584164 28.4902 -0.0538452 26.9623 0.172623Z" fill="white"/>
    <path fill-rule="evenodd" clip-rule="evenodd" d="M28.3405 12.5256C25.2872 13.3347 22.7394 15.2388 20.9352 18.0601L20.2225 19.1749L19.5923 18.192C18.2185 16.0493 15.665 14.032 13.103 13.0661C12.0421 12.6661 11.6239 12.6364 6.15114 12.5719C1.48457 12.5168 0.296777 12.553 0.170704 12.7539C-0.0944441 13.1766 -0.033198 36.791 0.233835 37.0609C0.398728 37.2276 1.86882 37.2895 5.66871 37.2895C10.239 37.2895 11.0559 37.2434 12.333 36.9133C15.4587 36.1054 18.3879 33.8365 20.0832 30.9105C20.2507 30.6215 20.3742 30.7337 20.9785 31.7232C22.6082 34.3919 25.9419 36.739 29.0541 37.4093C30.8504 37.796 33.7348 37.6649 35.4362 37.1192C37.087 36.5897 39.0953 35.3909 39.1665 34.8924C39.2191 34.5254 36.7476 30.5983 36.1472 30.0947C35.9455 29.9258 35.5954 30.0347 34.5783 30.5834C33.3455 31.2486 33.1701 31.2895 31.573 31.288C30.0908 31.2865 29.7529 31.2204 28.8938 30.7642C27.6383 30.0976 26.7121 29.1578 26.0734 27.9026C25.3526 26.4861 25.235 23.9566 25.8175 22.3944C27.1811 18.7372 31.5722 17.1776 34.7334 19.228C35.4452 19.6895 35.7396 19.7872 35.9753 19.6398C36.4227 19.36 39.1914 15.3491 39.1987 14.9699C39.2108 14.3659 36.7551 12.976 34.7462 12.45C33.1456 12.0307 30.0712 12.0671 28.3405 12.5256ZM11.3478 18.9556C12.5318 19.4874 13.8817 20.7798 14.4619 21.9371C15.7257 24.4576 15.1549 27.767 13.1392 29.6075C11.8938 30.7448 10.6215 31.2166 8.47811 31.336L6.60342 31.4404V24.9116V18.3831L8.53503 18.4715C9.93464 18.5355 10.7094 18.6688 11.3478 18.9556Z" fill="white"/>
</svg>
