<svg width="152" height="152" viewBox="0 0 152 152" fill="none" xmlns="http://www.w3.org/2000/svg">
    <path d="M45.5998 22.7998C39.5529 22.7998 33.7536 25.2019 29.4778 29.4778C25.2019 33.7536 22.7998 39.5529 22.7998 45.5998V91.1998C22.7998 97.2467 25.2019 103.046 29.4778 107.322C33.7536 111.598 39.5529 114 45.5998 114H91.1998C97.2467 114 103.046 111.598 107.322 107.322C111.598 103.046 114 97.2467 114 91.1998V45.5998C114 39.5529 111.598 33.7536 107.322 29.4778C103.046 25.2019 97.2467 22.7998 91.1998 22.7998H45.5998ZM81.6998 47.4998C81.6998 51.0272 80.2986 54.4101 77.8043 56.9043C75.3101 59.3986 71.9272 60.7998 68.3998 60.7998C64.8724 60.7998 61.4895 59.3986 58.9953 56.9043C56.5011 54.4101 55.0998 51.0272 55.0998 47.4998C55.0998 43.9724 56.5011 40.5895 58.9953 38.0953C61.4895 35.6011 64.8724 34.1998 68.3998 34.1998C71.9272 34.1998 75.3101 35.6011 77.8043 38.0953C80.2986 40.5895 81.6998 43.9724 81.6998 47.4998ZM94.9998 77.8998C94.9998 82.3686 93.8902 96.8998 68.3846 96.8998C42.8714 96.8998 41.7998 82.2394 41.7998 77.8998C41.7998 75.8842 42.6005 73.9511 44.0258 72.5258C45.4511 71.1005 47.3842 70.2998 49.3998 70.2998H87.3998C89.4155 70.2998 91.3485 71.1005 92.7738 72.5258C94.1991 73.9511 94.9998 75.8842 94.9998 77.8998ZM43.8062 121.6C47.9862 126.266 54.0434 129.2 60.7998 129.2H94.9998C104.07 129.2 112.769 125.597 119.183 119.183C125.597 112.769 129.2 104.07 129.2 94.9998V60.7998C129.2 54.051 126.266 47.9786 121.6 43.8062V94.9998C121.6 102.055 118.797 108.82 113.809 113.809C108.82 118.797 102.055 121.6 94.9998 121.6H43.8062Z" fill="#005BA5"/>
</svg>
