<svg width="129" height="129" viewBox="0 0 129 129" fill="none" xmlns="http://www.w3.org/2000/svg">
    <path d="M59.125 94.063C59.1163 87.3946 61.025 80.8644 64.6236 75.2505H22.8599C21.2715 75.2498 19.6986 75.5621 18.231 76.1696C16.7634 76.7771 15.4299 77.6679 14.3067 78.7911C13.1836 79.9142 12.2928 81.2477 11.6853 82.7153C11.0777 84.1829 10.7654 85.7558 10.7661 87.3442V92.2838C10.7661 95.3583 11.7336 98.3576 13.5127 100.862C21.801 112.494 35.3675 118.25 53.75 118.25C58.7595 118.25 63.4089 117.82 67.682 116.96C62.1574 110.616 59.1176 102.486 59.125 94.0737V94.063ZM80.625 37.6523C80.625 30.5246 77.7935 23.6889 72.7535 18.6488C67.7134 13.6088 60.8777 10.7773 53.75 10.7773C46.6223 10.7773 39.7865 13.6088 34.7465 18.6488C29.7065 23.6889 26.875 30.5246 26.875 37.6523C26.875 44.78 29.7065 51.6158 34.7465 56.6558C39.7865 61.6959 46.6223 64.5273 53.75 64.5273C60.8777 64.5273 67.7134 61.6959 72.7535 56.6558C77.7935 51.6158 80.625 44.78 80.625 37.6523ZM123.625 94.063C123.625 86.2225 120.51 78.7032 114.966 73.1591C109.422 67.6151 101.903 64.5005 94.0625 64.5005C86.222 64.5005 78.7027 67.6151 73.1586 73.1591C67.6146 78.7032 64.5 86.2225 64.5 94.063C64.5 101.903 67.6146 109.423 73.1586 114.967C78.7027 120.511 86.222 123.625 94.0625 123.625C101.903 123.625 109.422 120.511 114.966 114.967C120.51 109.423 123.625 101.903 123.625 94.063ZM93.5787 75.2935L94.0625 75.2505L94.5462 75.2935C95.0832 75.3916 95.5776 75.6509 95.9636 76.0369C96.3496 76.4229 96.6089 76.9172 96.707 77.4542L96.75 77.938V91.3755H110.209L110.693 91.4185C111.23 91.5166 111.724 91.7759 112.11 92.1618C112.496 92.5478 112.755 93.0422 112.853 93.5792L112.896 94.063L112.853 94.5467C112.755 95.0837 112.496 95.5781 112.11 95.9641C111.724 96.3501 111.23 96.6094 110.693 96.7075L110.209 96.7505H96.75V110.188L96.707 110.672C96.6089 111.209 96.3496 111.703 95.9636 112.089C95.5776 112.475 95.0832 112.734 94.5462 112.832L94.0625 112.875L93.5787 112.832C93.0417 112.734 92.5474 112.475 92.1614 112.089C91.7754 111.703 91.5161 111.209 91.418 110.672L91.375 110.188V96.7505H77.959L77.4752 96.7075C76.9382 96.6094 76.4439 96.3501 76.0579 95.9641C75.6719 95.5781 75.4126 95.0837 75.3145 94.5467L75.2715 94.063L75.3145 93.5792C75.4126 93.0422 75.6719 92.5478 76.0579 92.1618C76.4439 91.7759 76.9382 91.5166 77.4752 91.4185L77.959 91.3755H91.375V77.938L91.418 77.4542C91.5161 76.9172 91.7754 76.4229 92.1614 76.0369C92.5474 75.6509 93.0417 75.3916 93.5787 75.2935Z" fill="#005BA5"/>
</svg>
