<svg width="118" height="118" viewBox="0 0 118 118" fill="none" xmlns="http://www.w3.org/2000/svg">
    <path fill-rule="evenodd" clip-rule="evenodd" d="M56.5772 0.512211C53.4097 2.07362 53.1486 7.1226 56.1342 9.0795C56.7477 9.48176 58.1819 9.72392 61.6473 10.0106C69.39 10.6517 74.9262 12.1089 80.7766 15.0458C107.421 28.4214 116.193 61.7549 99.5843 86.5137C93.7354 95.2328 84.6168 102.168 74.6199 105.5C70.3666 106.917 67.4615 107.474 61.7272 107.969C58.2256 108.271 56.7283 108.525 56.1265 108.92C53.1247 110.887 53.4217 115.973 56.6272 117.494C57.8849 118.091 61.7711 118.169 65.7465 117.677C78.6877 116.074 90.2832 110.618 99.603 101.746C116.069 86.0708 122.09 62.604 115.184 41.0199C108.14 19.0026 88.9322 3.18882 65.7465 0.317381C61.7963 -0.171845 57.7921 -0.0867224 56.5772 0.512211ZM36.3866 4.42233C34.2703 5.34424 32.9089 8.00026 33.4744 10.1019C34.4666 13.788 38.6413 15.2105 41.3876 12.7985C43.3852 11.0438 43.7975 8.99653 42.6062 6.74339C41.4036 4.46843 38.6441 3.43866 36.3866 4.42233ZM19.1588 16.0018C17.8704 16.3755 16.1102 18.3773 15.85 19.7647C15.3748 22.2991 17.3313 25.2092 19.8251 25.6772C23.1378 26.2989 26.2942 23.1414 25.6727 19.8274C25.3953 18.3487 23.6004 16.3816 22.1643 15.9824C20.8603 15.6204 20.4659 15.6229 19.1588 16.0018ZM7.52613 33.6419C5.95087 34.2037 4.3968 35.8923 4.12586 37.3372C3.49274 40.7126 6.60119 43.8262 9.97228 43.1935C11.5328 42.9006 13.4251 41.1171 13.8499 39.5394C14.8452 35.8416 11.1144 32.3623 7.52613 33.6419ZM86.4737 39.6819C86.1358 39.8654 78.7062 47.1549 69.9632 55.8808L54.0671 71.7462L47.9992 65.7117C44.6619 62.3925 41.6293 59.5242 41.2604 59.337C40.8912 59.1502 39.9235 58.9978 39.1101 58.9984C36.3423 59.0005 34.4086 60.935 34.4064 63.7038C34.4058 64.5175 34.5579 65.4855 34.7449 65.8549C35.2288 66.8112 50.9783 82.6106 51.9764 83.1407C53.0402 83.7058 55.0898 83.7058 56.1542 83.1413C56.6104 82.8992 65.0965 74.5676 75.0125 64.6263C87.3864 52.2208 93.1072 46.2807 93.2513 45.6879C93.8257 43.3259 92.7533 40.7507 90.8109 39.8285C89.616 39.2616 87.387 39.1863 86.4737 39.6819ZM2.43355 54.7791C0.841391 55.8522 0 57.3107 0 58.9972C0 62.7484 4.38236 65.2474 7.3965 63.2152C10.665 61.0118 10.665 56.9825 7.3965 54.7791C6.68352 54.2982 5.9094 54.0803 4.91503 54.0803C3.92066 54.0803 3.14654 54.2982 2.43355 54.7791ZM6.84141 75.2731C4.82564 76.1886 3.65924 78.5942 4.14951 80.8261C4.46008 82.2418 6.28263 84.1268 7.71291 84.5122C12.3103 85.7506 15.9124 80.1442 12.7987 76.5964C11.0972 74.6576 9.14932 74.2249 6.84141 75.2731ZM18.8863 92.6142C18.3764 92.8364 17.531 93.5063 17.0075 94.1025C15.1954 96.1673 15.3868 98.9886 17.4662 100.868C19.6168 102.812 22.4171 102.662 24.3712 100.498C26.6631 97.9607 25.9756 94.2967 22.9307 92.8223C21.4295 92.0952 20.2195 92.0331 18.8863 92.6142ZM36.3776 104.432C33.1479 105.936 32.3845 109.615 34.7446 112.304C37.0166 114.893 41.3034 114.254 42.7288 111.114C43.466 109.49 43.4596 108.351 42.7039 106.803C41.5255 104.389 38.7243 103.338 36.3776 104.432Z" fill="#005BA5"/>
</svg>
