<svg width="348" height="151" viewBox="0 0 348 151" fill="none" xmlns="http://www.w3.org/2000/svg">
    <rect width="348" height="151" rx="9" fill="white"/>
    <path d="M51.8427 106V88.5455H63.195V91.196H55.0046V95.9347H62.6069V98.5852H55.0046V103.349H63.2631V106H51.8427ZM69.3697 98.3295V106H66.2844V92.9091H69.2333V95.1335H69.3867C69.6879 94.4006 70.168 93.8182 70.8271 93.3864C71.4918 92.9545 72.3129 92.7386 73.2901 92.7386C74.1935 92.7386 74.9805 92.9318 75.6509 93.3182C76.3271 93.7045 76.8498 94.2642 77.2191 94.9972C77.5941 95.7301 77.7788 96.6193 77.7731 97.6648V106H74.6879V98.142C74.6879 97.267 74.4606 96.5824 74.006 96.0881C73.5572 95.5937 72.935 95.3466 72.1396 95.3466C71.5998 95.3466 71.1197 95.4659 70.6992 95.7045C70.2844 95.9375 69.9577 96.2756 69.7191 96.7188C69.4862 97.1619 69.3697 97.6989 69.3697 98.3295ZM85.7674 106.23C84.739 106.23 83.8185 105.966 83.006 105.438C82.1935 104.909 81.5515 104.142 81.0799 103.136C80.6083 102.131 80.3725 100.909 80.3725 99.4716C80.3725 98.017 80.6112 96.7898 81.0884 95.7898C81.5714 94.7841 82.2219 94.0256 83.0401 93.5142C83.8583 92.9972 84.7702 92.7386 85.7759 92.7386C86.543 92.7386 87.1737 92.8693 87.668 93.1307C88.1623 93.3864 88.5543 93.696 88.8441 94.0597C89.1339 94.4176 89.3583 94.7557 89.5174 95.0739H89.6452V88.5455H92.739V106H89.7049V103.938H89.5174C89.3583 104.256 89.1282 104.594 88.8271 104.952C88.5259 105.304 88.1282 105.605 87.6339 105.855C87.1396 106.105 86.5174 106.23 85.7674 106.23ZM86.6282 103.699C87.2816 103.699 87.8384 103.523 88.2987 103.17C88.7589 102.812 89.1083 102.315 89.3469 101.679C89.5856 101.043 89.7049 100.301 89.7049 99.4545C89.7049 98.608 89.5856 97.8722 89.3469 97.2472C89.114 96.6222 88.7674 96.1364 88.3072 95.7898C87.8526 95.4432 87.293 95.2699 86.6282 95.2699C85.9407 95.2699 85.3668 95.4489 84.9066 95.8068C84.4464 96.1648 84.0998 96.6591 83.8668 97.2898C83.6339 97.9205 83.5174 98.642 83.5174 99.4545C83.5174 100.273 83.6339 101.003 83.8668 101.645C84.1055 102.281 84.4549 102.784 84.9151 103.153C85.381 103.517 85.9521 103.699 86.6282 103.699ZM101.822 106.256C100.51 106.256 99.3761 105.983 98.4215 105.438C97.4727 104.886 96.7425 104.108 96.2312 103.102C95.7198 102.091 95.4641 100.901 95.4641 99.5312C95.4641 98.1847 95.7198 97.0028 96.2312 95.9858C96.7482 94.9631 97.4698 94.1676 98.396 93.5994C99.3221 93.0256 100.41 92.7386 101.66 92.7386C102.467 92.7386 103.228 92.8693 103.944 93.1307C104.666 93.3864 105.302 93.7841 105.853 94.3239C106.41 94.8636 106.848 95.5511 107.166 96.3864C107.484 97.2159 107.643 98.2045 107.643 99.3523V100.298H96.913V98.2188H104.686C104.68 97.6278 104.552 97.1023 104.302 96.642C104.052 96.1761 103.703 95.8097 103.254 95.5426C102.811 95.2756 102.294 95.142 101.703 95.142C101.072 95.142 100.518 95.2955 100.041 95.6023C99.5636 95.9034 99.1914 96.3011 98.9244 96.7955C98.663 97.2841 98.5295 97.821 98.5238 98.4062V100.222C98.5238 100.983 98.663 101.636 98.9414 102.182C99.2198 102.722 99.609 103.136 100.109 103.426C100.609 103.71 101.194 103.852 101.865 103.852C102.314 103.852 102.72 103.79 103.083 103.665C103.447 103.534 103.762 103.344 104.029 103.094C104.297 102.844 104.498 102.534 104.635 102.165L107.515 102.489C107.333 103.25 106.987 103.915 106.475 104.483C105.97 105.045 105.322 105.483 104.532 105.795C103.743 106.102 102.839 106.256 101.822 106.256ZM110.253 106V92.9091H113.245V95.0909H113.381C113.62 94.3352 114.029 93.7528 114.608 93.3438C115.194 92.929 115.861 92.7216 116.611 92.7216C116.782 92.7216 116.972 92.7301 117.182 92.7472C117.398 92.7585 117.577 92.7784 117.719 92.8068V95.6449C117.588 95.5994 117.381 95.5597 117.097 95.5256C116.819 95.4858 116.549 95.4659 116.287 95.4659C115.725 95.4659 115.219 95.5881 114.77 95.8324C114.327 96.071 113.978 96.4034 113.722 96.8295C113.466 97.2557 113.338 97.7472 113.338 98.304V106H110.253ZM125.025 106.256C123.713 106.256 122.579 105.983 121.625 105.438C120.676 104.886 119.946 104.108 119.434 103.102C118.923 102.091 118.667 100.901 118.667 99.5312C118.667 98.1847 118.923 97.0028 119.434 95.9858C119.951 94.9631 120.673 94.1676 121.599 93.5994C122.525 93.0256 123.613 92.7386 124.863 92.7386C125.67 92.7386 126.431 92.8693 127.147 93.1307C127.869 93.3864 128.505 93.7841 129.056 94.3239C129.613 94.8636 130.051 95.5511 130.369 96.3864C130.687 97.2159 130.846 98.2045 130.846 99.3523V100.298H120.116V98.2188H127.889C127.883 97.6278 127.755 97.1023 127.505 96.642C127.255 96.1761 126.906 95.8097 126.457 95.5426C126.014 95.2756 125.497 95.142 124.906 95.142C124.275 95.142 123.721 95.2955 123.244 95.6023C122.767 95.9034 122.395 96.3011 122.127 96.7955C121.866 97.2841 121.733 97.821 121.727 98.4062V100.222C121.727 100.983 121.866 101.636 122.145 102.182C122.423 102.722 122.812 103.136 123.312 103.426C123.812 103.71 124.397 103.852 125.068 103.852C125.517 103.852 125.923 103.79 126.287 103.665C126.65 103.534 126.966 103.344 127.233 103.094C127.5 102.844 127.701 102.534 127.838 102.165L130.718 102.489C130.537 103.25 130.19 103.915 129.679 104.483C129.173 105.045 128.525 105.483 127.735 105.795C126.946 106.102 126.042 106.256 125.025 106.256ZM139.167 106.256C137.86 106.256 136.738 105.969 135.8 105.395C134.868 104.821 134.15 104.028 133.644 103.017C133.144 102 132.894 100.83 132.894 99.5057C132.894 98.1761 133.15 97.0028 133.661 95.9858C134.172 94.9631 134.894 94.1676 135.826 93.5994C136.763 93.0256 137.871 92.7386 139.15 92.7386C140.212 92.7386 141.152 92.9347 141.971 93.3267C142.794 93.7131 143.451 94.2614 143.939 94.9716C144.428 95.6761 144.706 96.5 144.775 97.4432H141.826C141.706 96.8125 141.422 96.2869 140.973 95.8665C140.53 95.4403 139.936 95.2273 139.192 95.2273C138.561 95.2273 138.007 95.3977 137.53 95.7386C137.053 96.0739 136.681 96.5568 136.414 97.1875C136.152 97.8182 136.022 98.5739 136.022 99.4545C136.022 100.347 136.152 101.114 136.414 101.756C136.675 102.392 137.042 102.884 137.513 103.23C137.99 103.571 138.55 103.741 139.192 103.741C139.647 103.741 140.053 103.656 140.411 103.486C140.775 103.31 141.078 103.057 141.323 102.727C141.567 102.398 141.735 101.997 141.826 101.526H144.775C144.701 102.452 144.428 103.273 143.956 103.989C143.485 104.699 142.843 105.256 142.03 105.659C141.218 106.057 140.263 106.256 139.167 106.256ZM138.28 105.932H139.951L139.814 106.656C140.348 106.736 140.8 106.94 141.169 107.27C141.544 107.605 141.732 108.085 141.732 108.71C141.738 109.517 141.377 110.165 140.65 110.653C139.922 111.142 138.885 111.386 137.539 111.386L137.505 109.869C138.158 109.869 138.678 109.781 139.064 109.605C139.451 109.435 139.647 109.162 139.652 108.787C139.664 108.423 139.527 108.156 139.243 107.986C138.965 107.821 138.522 107.707 137.914 107.645L138.28 105.932ZM153.018 106.256C151.74 106.256 150.632 105.974 149.694 105.412C148.757 104.849 148.029 104.062 147.512 103.051C147.001 102.04 146.745 100.858 146.745 99.5057C146.745 98.1534 147.001 96.9687 147.512 95.9517C148.029 94.9347 148.757 94.1449 149.694 93.5824C150.632 93.0199 151.74 92.7386 153.018 92.7386C154.297 92.7386 155.404 93.0199 156.342 93.5824C157.279 94.1449 158.004 94.9347 158.515 95.9517C159.032 96.9687 159.291 98.1534 159.291 99.5057C159.291 100.858 159.032 102.04 158.515 103.051C158.004 104.062 157.279 104.849 156.342 105.412C155.404 105.974 154.297 106.256 153.018 106.256ZM153.035 103.784C153.728 103.784 154.308 103.594 154.774 103.213C155.24 102.827 155.586 102.31 155.814 101.662C156.047 101.014 156.163 100.293 156.163 99.4972C156.163 98.696 156.047 97.9716 155.814 97.3239C155.586 96.6705 155.24 96.1506 154.774 95.7642C154.308 95.3778 153.728 95.1847 153.035 95.1847C152.325 95.1847 151.734 95.3778 151.262 95.7642C150.797 96.1506 150.447 96.6705 150.214 97.3239C149.987 97.9716 149.873 98.696 149.873 99.4972C149.873 100.293 149.987 101.014 150.214 101.662C150.447 102.31 150.797 102.827 151.262 103.213C151.734 103.594 152.325 103.784 153.035 103.784ZM173.573 106.256C172.266 106.256 171.144 105.969 170.206 105.395C169.275 104.821 168.556 104.028 168.05 103.017C167.55 102 167.3 100.83 167.3 99.5057C167.3 98.1761 167.556 97.0028 168.067 95.9858C168.578 94.9631 169.3 94.1676 170.232 93.5994C171.169 93.0256 172.277 92.7386 173.556 92.7386C174.618 92.7386 175.559 92.9347 176.377 93.3267C177.201 93.7131 177.857 94.2614 178.346 94.9716C178.834 95.6761 179.113 96.5 179.181 97.4432H176.232C176.113 96.8125 175.828 96.2869 175.38 95.8665C174.936 95.4403 174.343 95.2273 173.598 95.2273C172.968 95.2273 172.414 95.3977 171.936 95.7386C171.459 96.0739 171.087 96.5568 170.82 97.1875C170.559 97.8182 170.428 98.5739 170.428 99.4545C170.428 100.347 170.559 101.114 170.82 101.756C171.081 102.392 171.448 102.884 171.919 103.23C172.397 103.571 172.956 103.741 173.598 103.741C174.053 103.741 174.459 103.656 174.817 103.486C175.181 103.31 175.485 103.057 175.729 102.727C175.973 102.398 176.141 101.997 176.232 101.526H179.181C179.107 102.452 178.834 103.273 178.363 103.989C177.891 104.699 177.249 105.256 176.436 105.659C175.624 106.057 174.669 106.256 173.573 106.256ZM185.481 106.264C184.652 106.264 183.904 106.116 183.24 105.821C182.581 105.52 182.058 105.077 181.672 104.491C181.291 103.906 181.1 103.185 181.1 102.327C181.1 101.588 181.237 100.977 181.51 100.494C181.782 100.011 182.154 99.625 182.626 99.3352C183.098 99.0455 183.629 98.8267 184.22 98.679C184.816 98.5256 185.433 98.4148 186.069 98.3466C186.836 98.267 187.458 98.196 187.936 98.1335C188.413 98.0653 188.76 97.9631 188.975 97.8267C189.197 97.6847 189.308 97.4659 189.308 97.1705V97.1193C189.308 96.4773 189.118 95.9801 188.737 95.6278C188.356 95.2756 187.808 95.0994 187.092 95.0994C186.336 95.0994 185.737 95.2642 185.294 95.5938C184.856 95.9233 184.561 96.3125 184.407 96.7614L181.527 96.3523C181.754 95.5568 182.129 94.892 182.652 94.358C183.174 93.8182 183.814 93.4148 184.569 93.1477C185.325 92.875 186.16 92.7386 187.075 92.7386C187.706 92.7386 188.333 92.8125 188.958 92.9602C189.583 93.108 190.154 93.3523 190.672 93.6932C191.189 94.0284 191.603 94.4858 191.916 95.0653C192.234 95.6449 192.393 96.3693 192.393 97.2386V106H189.427V104.202H189.325C189.137 104.565 188.873 104.906 188.532 105.224C188.197 105.537 187.774 105.79 187.262 105.983C186.757 106.17 186.163 106.264 185.481 106.264ZM186.282 103.997C186.902 103.997 187.439 103.875 187.893 103.631C188.348 103.381 188.697 103.051 188.941 102.642C189.191 102.233 189.316 101.787 189.316 101.304V99.7614C189.22 99.8409 189.055 99.9148 188.822 99.983C188.595 100.051 188.339 100.111 188.055 100.162C187.771 100.213 187.49 100.259 187.211 100.298C186.933 100.338 186.691 100.372 186.487 100.401C186.027 100.463 185.615 100.565 185.251 100.707C184.887 100.849 184.6 101.048 184.39 101.304C184.18 101.554 184.075 101.878 184.075 102.276C184.075 102.844 184.282 103.273 184.697 103.562C185.112 103.852 185.64 103.997 186.282 103.997ZM200.353 106.23C199.325 106.23 198.404 105.966 197.592 105.438C196.779 104.909 196.137 104.142 195.666 103.136C195.194 102.131 194.958 100.909 194.958 99.4716C194.958 98.017 195.197 96.7898 195.674 95.7898C196.157 94.7841 196.808 94.0256 197.626 93.5142C198.444 92.9972 199.356 92.7386 200.362 92.7386C201.129 92.7386 201.76 92.8693 202.254 93.1307C202.748 93.3864 203.14 93.696 203.43 94.0597C203.72 94.4176 203.944 94.7557 204.103 95.0739H204.231V88.5455H207.325V106H204.291V103.938H204.103C203.944 104.256 203.714 104.594 203.413 104.952C203.112 105.304 202.714 105.605 202.22 105.855C201.725 106.105 201.103 106.23 200.353 106.23ZM201.214 103.699C201.868 103.699 202.424 103.523 202.885 103.17C203.345 102.812 203.694 102.315 203.933 101.679C204.172 101.043 204.291 100.301 204.291 99.4545C204.291 98.608 204.172 97.8722 203.933 97.2472C203.7 96.6222 203.353 96.1364 202.893 95.7898C202.439 95.4432 201.879 95.2699 201.214 95.2699C200.527 95.2699 199.953 95.4489 199.493 95.8068C199.032 96.1648 198.686 96.6591 198.453 97.2898C198.22 97.9205 198.103 98.642 198.103 99.4545C198.103 100.273 198.22 101.003 198.453 101.645C198.691 102.281 199.041 102.784 199.501 103.153C199.967 103.517 200.538 103.699 201.214 103.699ZM214.38 106.264C213.55 106.264 212.803 106.116 212.138 105.821C211.479 105.52 210.956 105.077 210.57 104.491C210.189 103.906 209.999 103.185 209.999 102.327C209.999 101.588 210.135 100.977 210.408 100.494C210.681 100.011 211.053 99.625 211.525 99.3352C211.996 99.0455 212.527 98.8267 213.118 98.679C213.715 98.5256 214.331 98.4148 214.968 98.3466C215.735 98.267 216.357 98.196 216.834 98.1335C217.311 98.0653 217.658 97.9631 217.874 97.8267C218.096 97.6847 218.206 97.4659 218.206 97.1705V97.1193C218.206 96.4773 218.016 95.9801 217.635 95.6278C217.255 95.2756 216.706 95.0994 215.99 95.0994C215.235 95.0994 214.635 95.2642 214.192 95.5938C213.755 95.9233 213.459 96.3125 213.306 96.7614L210.425 96.3523C210.652 95.5568 211.027 94.892 211.55 94.358C212.073 93.8182 212.712 93.4148 213.468 93.1477C214.223 92.875 215.059 92.7386 215.973 92.7386C216.604 92.7386 217.232 92.8125 217.857 92.9602C218.482 93.108 219.053 93.3523 219.57 93.6932C220.087 94.0284 220.502 94.4858 220.814 95.0653C221.132 95.6449 221.292 96.3693 221.292 97.2386V106H218.326V104.202H218.223C218.036 104.565 217.772 104.906 217.431 105.224C217.096 105.537 216.672 105.79 216.161 105.983C215.655 106.17 215.061 106.264 214.38 106.264ZM215.181 103.997C215.8 103.997 216.337 103.875 216.792 103.631C217.246 103.381 217.596 103.051 217.84 102.642C218.09 102.233 218.215 101.787 218.215 101.304V99.7614C218.118 99.8409 217.953 99.9148 217.721 99.983C217.493 100.051 217.238 100.111 216.953 100.162C216.669 100.213 216.388 100.259 216.11 100.298C215.831 100.338 215.59 100.372 215.385 100.401C214.925 100.463 214.513 100.565 214.15 100.707C213.786 100.849 213.499 101.048 213.289 101.304C213.078 101.554 212.973 101.878 212.973 102.276C212.973 102.844 213.181 103.273 213.596 103.562C214.01 103.852 214.539 103.997 215.181 103.997ZM234.74 96.3693L231.928 96.6761C231.848 96.392 231.709 96.125 231.51 95.875C231.317 95.625 231.056 95.4233 230.726 95.2699C230.397 95.1165 229.993 95.0398 229.516 95.0398C228.874 95.0398 228.334 95.179 227.897 95.4574C227.465 95.7358 227.252 96.0966 227.257 96.5398C227.252 96.9205 227.391 97.2301 227.675 97.4688C227.965 97.7074 228.442 97.9034 229.107 98.0568L231.34 98.5341C232.578 98.8011 233.499 99.2244 234.101 99.804C234.709 100.384 235.016 101.142 235.022 102.08C235.016 102.903 234.775 103.631 234.297 104.261C233.826 104.886 233.169 105.375 232.328 105.727C231.488 106.08 230.522 106.256 229.431 106.256C227.828 106.256 226.539 105.92 225.561 105.25C224.584 104.574 224.002 103.634 223.814 102.429L226.823 102.139C226.959 102.73 227.249 103.176 227.692 103.477C228.135 103.778 228.712 103.929 229.422 103.929C230.155 103.929 230.743 103.778 231.186 103.477C231.635 103.176 231.86 102.804 231.86 102.361C231.86 101.986 231.715 101.676 231.425 101.432C231.141 101.187 230.698 101 230.096 100.869L227.863 100.401C226.607 100.139 225.678 99.6989 225.076 99.0795C224.473 98.4545 224.175 97.6648 224.181 96.7102C224.175 95.9034 224.394 95.2045 224.837 94.6136C225.286 94.017 225.908 93.5568 226.703 93.233C227.505 92.9034 228.428 92.7386 229.473 92.7386C231.007 92.7386 232.215 93.0653 233.096 93.7188C233.982 94.3722 234.53 95.2557 234.74 96.3693ZM244.103 92.9091V95.2955H236.577V92.9091H244.103ZM238.435 89.7727H241.52V102.062C241.52 102.477 241.583 102.795 241.708 103.017C241.838 103.233 242.009 103.381 242.219 103.46C242.429 103.54 242.662 103.58 242.918 103.58C243.111 103.58 243.287 103.565 243.446 103.537C243.611 103.509 243.736 103.483 243.821 103.46L244.341 105.872C244.176 105.929 243.941 105.991 243.634 106.06C243.333 106.128 242.963 106.168 242.526 106.179C241.753 106.202 241.057 106.085 240.438 105.83C239.819 105.568 239.327 105.165 238.963 104.619C238.605 104.074 238.429 103.392 238.435 102.574V89.7727ZM246.683 106V92.9091H249.674V95.0909H249.811C250.049 94.3352 250.458 93.7528 251.038 93.3438C251.623 92.929 252.291 92.7216 253.041 92.7216C253.211 92.7216 253.402 92.7301 253.612 92.7472C253.828 92.7585 254.007 92.7784 254.149 92.8068V95.6449C254.018 95.5994 253.811 95.5597 253.527 95.5256C253.248 95.4858 252.978 95.4659 252.717 95.4659C252.154 95.4659 251.649 95.5881 251.2 95.8324C250.757 96.071 250.407 96.4034 250.152 96.8295C249.896 97.2557 249.768 97.7472 249.768 98.304V106H246.683ZM259.731 106.264C258.902 106.264 258.154 106.116 257.49 105.821C256.831 105.52 256.308 105.077 255.922 104.491C255.541 103.906 255.35 103.185 255.35 102.327C255.35 101.588 255.487 100.977 255.76 100.494C256.032 100.011 256.404 99.625 256.876 99.3352C257.348 99.0455 257.879 98.8267 258.47 98.679C259.066 98.5256 259.683 98.4148 260.319 98.3466C261.086 98.267 261.708 98.196 262.186 98.1335C262.663 98.0653 263.01 97.9631 263.225 97.8267C263.447 97.6847 263.558 97.4659 263.558 97.1705V97.1193C263.558 96.4773 263.368 95.9801 262.987 95.6278C262.606 95.2756 262.058 95.0994 261.342 95.0994C260.586 95.0994 259.987 95.2642 259.544 95.5938C259.106 95.9233 258.811 96.3125 258.657 96.7614L255.777 96.3523C256.004 95.5568 256.379 94.892 256.902 94.358C257.424 93.8182 258.064 93.4148 258.819 93.1477C259.575 92.875 260.41 92.7386 261.325 92.7386C261.956 92.7386 262.583 92.8125 263.208 92.9602C263.833 93.108 264.404 93.3523 264.922 93.6932C265.439 94.0284 265.853 94.4858 266.166 95.0653C266.484 95.6449 266.643 96.3693 266.643 97.2386V106H263.677V104.202H263.575C263.387 104.565 263.123 104.906 262.782 105.224C262.447 105.537 262.024 105.79 261.512 105.983C261.007 106.17 260.413 106.264 259.731 106.264ZM260.532 103.997C261.152 103.997 261.689 103.875 262.143 103.631C262.598 103.381 262.947 103.051 263.191 102.642C263.441 102.233 263.566 101.787 263.566 101.304V99.7614C263.47 99.8409 263.305 99.9148 263.072 99.983C262.845 100.051 262.589 100.111 262.305 100.162C262.021 100.213 261.74 100.259 261.461 100.298C261.183 100.338 260.941 100.372 260.737 100.401C260.277 100.463 259.865 100.565 259.501 100.707C259.137 100.849 258.85 101.048 258.64 101.304C258.43 101.554 258.325 101.878 258.325 102.276C258.325 102.844 258.532 103.273 258.947 103.562C259.362 103.852 259.89 103.997 260.532 103.997ZM274.603 106.23C273.575 106.23 272.654 105.966 271.842 105.438C271.029 104.909 270.387 104.142 269.916 103.136C269.444 102.131 269.208 100.909 269.208 99.4716C269.208 98.017 269.447 96.7898 269.924 95.7898C270.407 94.7841 271.058 94.0256 271.876 93.5142C272.694 92.9972 273.606 92.7386 274.612 92.7386C275.379 92.7386 276.01 92.8693 276.504 93.1307C276.998 93.3864 277.39 93.696 277.68 94.0597C277.97 94.4176 278.194 94.7557 278.353 95.0739H278.481V88.5455H281.575V106H278.541V103.938H278.353C278.194 104.256 277.964 104.594 277.663 104.952C277.362 105.304 276.964 105.605 276.47 105.855C275.975 106.105 275.353 106.23 274.603 106.23ZM275.464 103.699C276.118 103.699 276.674 103.523 277.135 103.17C277.595 102.812 277.944 102.315 278.183 101.679C278.422 101.043 278.541 100.301 278.541 99.4545C278.541 98.608 278.422 97.8722 278.183 97.2472C277.95 96.6222 277.603 96.1364 277.143 95.7898C276.689 95.4432 276.129 95.2699 275.464 95.2699C274.777 95.2699 274.203 95.4489 273.743 95.8068C273.282 96.1648 272.936 96.6591 272.703 97.2898C272.47 97.9205 272.353 98.642 272.353 99.4545C272.353 100.273 272.47 101.003 272.703 101.645C272.941 102.281 273.291 102.784 273.751 103.153C274.217 103.517 274.788 103.699 275.464 103.699ZM290.573 106.256C289.294 106.256 288.186 105.974 287.249 105.412C286.311 104.849 285.584 104.062 285.067 103.051C284.556 102.04 284.3 100.858 284.3 99.5057C284.3 98.1534 284.556 96.9687 285.067 95.9517C285.584 94.9347 286.311 94.1449 287.249 93.5824C288.186 93.0199 289.294 92.7386 290.573 92.7386C291.851 92.7386 292.959 93.0199 293.897 93.5824C294.834 94.1449 295.559 94.9347 296.07 95.9517C296.587 96.9687 296.846 98.1534 296.846 99.5057C296.846 100.858 296.587 102.04 296.07 103.051C295.559 104.062 294.834 104.849 293.897 105.412C292.959 105.974 291.851 106.256 290.573 106.256ZM290.59 103.784C291.283 103.784 291.863 103.594 292.328 103.213C292.794 102.827 293.141 102.31 293.368 101.662C293.601 101.014 293.718 100.293 293.718 99.4972C293.718 98.696 293.601 97.9716 293.368 97.3239C293.141 96.6705 292.794 96.1506 292.328 95.7642C291.863 95.3778 291.283 95.1847 290.59 95.1847C289.88 95.1847 289.289 95.3778 288.817 95.7642C288.351 96.1506 288.002 96.6705 287.769 97.3239C287.542 97.9716 287.428 98.696 287.428 99.4972C287.428 100.293 287.542 101.014 287.769 101.662C288.002 102.31 288.351 102.827 288.817 103.213C289.289 103.594 289.88 103.784 290.59 103.784Z" fill="#404040"/>
    <path d="M158.25 54H174V56.625H158.25V54ZM155.625 47.4375H168.75V50.0625H155.625V47.4375Z" fill="#808080"/>
    <path d="M192.269 54.7954L188.331 45.6079C188.23 45.3717 188.062 45.1705 187.848 45.0291C187.633 44.8877 187.382 44.8124 187.125 44.8125H183.188V42.1875C183.188 41.8394 183.049 41.5056 182.803 41.2594C182.557 41.0133 182.223 40.875 181.875 40.875H160.875V43.5H180.563V59.9797C179.965 60.327 179.441 60.7893 179.023 61.3398C178.604 61.8904 178.299 62.5183 178.124 63.1875H169.876C169.557 61.9503 168.797 60.872 167.739 60.1548C166.682 59.4377 165.399 59.1308 164.131 59.2918C162.864 59.4529 161.698 60.0707 160.854 61.0294C160.009 61.9882 159.543 63.2222 159.543 64.5C159.543 65.7778 160.009 67.0118 160.854 67.9706C161.698 68.9293 162.864 69.5471 164.131 69.7082C165.399 69.8692 166.682 69.5623 167.739 68.8452C168.797 68.128 169.557 67.0497 169.876 65.8125H178.124C178.41 66.9389 179.062 67.938 179.98 68.6517C180.897 69.3653 182.026 69.7528 183.188 69.7528C184.35 69.7528 185.479 69.3653 186.396 68.6517C187.313 67.938 187.966 66.9389 188.251 65.8125H191.063C191.411 65.8125 191.745 65.6742 191.991 65.4281C192.237 65.1819 192.375 64.8481 192.375 64.5V55.3125C192.375 55.1347 192.339 54.9587 192.269 54.7954ZM164.813 67.125C164.293 67.125 163.786 66.971 163.354 66.6826C162.923 66.3942 162.586 65.9842 162.387 65.5045C162.189 65.0249 162.137 64.4971 162.238 63.9879C162.339 63.4787 162.589 63.011 162.956 62.6438C163.324 62.2767 163.791 62.0267 164.301 61.9254C164.81 61.8242 165.338 61.8761 165.817 62.0748C166.297 62.2735 166.707 62.6099 166.995 63.0416C167.284 63.4733 167.438 63.9808 167.438 64.5C167.437 65.196 167.16 65.8633 166.668 66.3554C166.176 66.8475 165.509 67.1243 164.813 67.125ZM183.188 47.4375H186.259L189.073 54H183.188V47.4375ZM183.188 67.125C182.668 67.125 182.161 66.971 181.729 66.6826C181.298 66.3942 180.961 65.9842 180.762 65.5045C180.564 65.0249 180.512 64.4971 180.613 63.9879C180.714 63.4787 180.964 63.011 181.331 62.6438C181.699 62.2767 182.166 62.0267 182.676 61.9254C183.185 61.8242 183.713 61.8761 184.192 62.0748C184.672 62.2735 185.082 62.6099 185.37 63.0416C185.659 63.4733 185.813 63.9808 185.813 64.5C185.812 65.196 185.535 65.8633 185.043 66.3554C184.551 66.8475 183.884 67.1243 183.188 67.125ZM189.75 63.1875H188.251C187.962 62.0633 187.308 61.0667 186.392 60.3542C185.475 59.6416 184.348 59.2532 183.188 59.25V56.625H189.75V63.1875Z" fill="#808080"/>
</svg>
