<svg width="118" height="107" viewBox="0 0 118 107" fill="none" xmlns="http://www.w3.org/2000/svg">
    <path fill-rule="evenodd" clip-rule="evenodd" d="M18.1844 0.712545C9.9395 3.36191 3.19346 10.4175 1.0384 18.6455C-0.361057 23.9866 -0.339451 82.6035 1.06371 87.9611C3.60335 97.6581 11.6347 104.906 21.7901 106.664C31.7783 108.394 42.8036 103.304 47.6798 94.7116L49.4762 91.5466L55.095 92.9554C66.529 95.8221 83.2132 95.8835 94.5243 93.1015C105.298 90.4515 114.304 84.9042 116.858 79.3427C117.781 77.3336 117.989 75.2833 118 68.0577C118.016 57.3025 117.445 55.1154 113.63 51.3046C105.98 43.6653 89.3518 39.1922 71.1922 39.8877C62.3022 40.2284 61.6565 40.6022 61.9368 45.2515C62.0849 47.7136 61.9479 48.0304 60.5805 48.3735C59.3471 48.6835 58.4538 48.1943 55.8556 45.7874C54.0931 44.1545 52.3782 42.8188 52.0436 42.8188C51.672 42.8188 51.3578 38.1087 51.2349 30.6953C51.0343 18.5755 51.0337 18.5706 49.1145 14.5818C46.3026 8.73921 42.8549 5.20714 37.2941 2.47183C32.9543 0.337485 32.1246 0.145351 26.6861 0.0164431C23.0149 -0.0707233 19.803 0.192617 18.1844 0.712545ZM34.8112 5.25624C38.8867 7.05482 43.0882 11.1191 45.3815 15.4799L47.3304 19.1857L47.5304 35.2992L47.7298 51.4127H25.7231H3.7157L3.95461 35.913C4.22191 18.5816 4.47315 17.2846 8.62152 11.8195C10.9216 8.78894 15.9411 5.26545 19.5511 4.14702C22.705 3.17039 31.5388 3.81247 34.8112 5.25624ZM27.0231 7.57782C26.4669 9.0179 27.0367 9.5851 30.6221 11.1615C34.1451 12.7108 37.7268 15.9083 39.4491 19.042C40.3671 20.7123 40.5887 23.1695 40.8486 34.5319L41.1572 48.0365H42.7005H44.2438L44.4111 35.1893C44.6087 20.0009 44.2086 18.163 39.6158 13.1657C36.673 9.96445 31.0338 6.6018 28.6072 6.6018C27.9429 6.6018 27.2299 7.04131 27.0231 7.57782ZM84.6942 44.079C100.697 46.0556 112.735 52.1615 114.016 58.9507C114.878 63.5208 110.288 68.612 102.236 72.0146L98.1795 73.7291L83.4033 59.0459C75.277 50.9701 68.6279 44.1539 68.6279 43.8979C68.6279 43.2172 78.6333 43.3301 84.6942 44.079ZM78.9722 76.794C76.3369 77.4772 62.2516 76.2901 56.2815 74.8813L51.6516 73.7892L51.4874 60.2987L51.3232 46.8088L66.153 61.5405L80.9828 76.2729L78.9722 76.794ZM95.7898 77.1844C95.7898 77.6908 89.1228 71.4799 80.9742 63.3827C72.8256 55.2854 66.1586 48.2458 66.1586 47.7394C66.1586 47.233 72.8256 53.4439 80.9742 61.5411C89.1228 69.6384 95.7898 76.678 95.7898 77.1844ZM78.7204 66.6662L94.0514 81.9203L90.9081 82.5378L87.7647 83.1559V80.323V77.4901L75.1097 64.9173C68.1494 58.0023 62.4547 52.1352 62.4547 51.8786C62.4547 51.6226 62.6652 51.4127 62.9226 51.4127C63.1794 51.4127 70.2884 58.2767 78.7204 66.6662ZM47.5224 71.2092L47.3304 87.3227L45.6254 90.7756C43.7333 94.606 39.2627 99.1203 35.4403 101.059C30.2678 103.684 22.2902 103.779 16.6985 101.283C12.4094 99.3689 8.41534 95.4139 6.14732 90.8358L4.1182 86.7396L3.91757 70.9177L3.71756 55.0957H25.7157H47.7138L47.5224 71.2092ZM113.365 77.6338C112.204 80.6563 108.721 83.6151 103.348 86.1429C91.6087 91.6651 70.3922 92.9419 54.6888 89.0716L50.9355 88.1465L51.2152 83.1308C51.3689 80.3721 51.5535 78.0457 51.6257 77.9609C51.6973 77.8762 54.5104 78.3998 57.8773 79.1254C62.614 80.1462 66.2598 80.4587 74.0016 80.5078L84.0059 80.5704L84.1873 83.6396C84.4102 87.3921 84.975 87.5646 92.2464 86.0993C99.3375 84.6709 99.4937 84.5512 99.4937 80.5293C99.4937 77.8621 99.7197 77.0807 100.574 76.7971C103.782 75.7321 109.369 72.8169 111.531 71.0791L114.001 69.0951L114.194 72.0349C114.306 73.7438 113.959 76.0875 113.365 77.6338ZM8.49251 83.6746C7.77395 84.3892 7.72147 84.9705 8.24064 86.4517C9.37897 89.6983 12.7217 93.9271 15.838 96.0627C19.1573 98.3376 21.2987 98.4831 21.5901 96.4543C21.7315 95.4697 21.1055 94.7589 19.0314 93.5508C15.7997 91.6669 13.5848 89.2036 12.0853 85.8243C10.8402 83.0178 9.7864 82.3874 8.49251 83.6746Z" fill="#005BA5"/>
</svg>
