<svg width="348" height="151" viewBox="0 0 348 151" fill="none" xmlns="http://www.w3.org/2000/svg">
    <rect width="348" height="151" rx="9" fill="white"/>
    <path d="M102.198 88.5455V106H99.3857L91.1612 94.1108H91.0163V106H87.8544V88.5455H90.6839L98.8999 100.443H99.0533V88.5455H102.198ZM111.217 106.256C109.939 106.256 108.831 105.974 107.893 105.412C106.956 104.849 106.229 104.062 105.712 103.051C105.2 102.04 104.945 100.858 104.945 99.5057C104.945 98.1534 105.2 96.9687 105.712 95.9517C106.229 94.9347 106.956 94.1449 107.893 93.5824C108.831 93.0199 109.939 92.7386 111.217 92.7386C112.496 92.7386 113.604 93.0199 114.541 93.5824C115.479 94.1449 116.203 94.9347 116.714 95.9517C117.232 96.9687 117.49 98.1534 117.49 99.5057C117.49 100.858 117.232 102.04 116.714 103.051C116.203 104.062 115.479 104.849 114.541 105.412C113.604 105.974 112.496 106.256 111.217 106.256ZM111.234 103.784C111.928 103.784 112.507 103.594 112.973 103.213C113.439 102.827 113.786 102.31 114.013 101.662C114.246 101.014 114.362 100.293 114.362 99.4972C114.362 98.696 114.246 97.9716 114.013 97.3239C113.786 96.6705 113.439 96.1506 112.973 95.7642C112.507 95.3778 111.928 95.1847 111.234 95.1847C110.524 95.1847 109.933 95.3778 109.462 95.7642C108.996 96.1506 108.646 96.6705 108.413 97.3239C108.186 97.9716 108.072 98.696 108.072 99.4972C108.072 100.293 108.186 101.014 108.413 101.662C108.646 102.31 108.996 102.827 109.462 103.213C109.933 103.594 110.524 103.784 111.234 103.784ZM131.357 92.9091L126.695 106H123.286L118.624 92.9091H121.913L124.922 102.634H125.058L128.075 92.9091H131.357ZM138.756 106.256C137.478 106.256 136.37 105.974 135.433 105.412C134.495 104.849 133.768 104.062 133.251 103.051C132.739 102.04 132.484 100.858 132.484 99.5057C132.484 98.1534 132.739 96.9687 133.251 95.9517C133.768 94.9347 134.495 94.1449 135.433 93.5824C136.37 93.0199 137.478 92.7386 138.756 92.7386C140.035 92.7386 141.143 93.0199 142.08 93.5824C143.018 94.1449 143.742 94.9347 144.254 95.9517C144.771 96.9687 145.029 98.1534 145.029 99.5057C145.029 100.858 144.771 102.04 144.254 103.051C143.742 104.062 143.018 104.849 142.08 105.412C141.143 105.974 140.035 106.256 138.756 106.256ZM138.773 103.784C139.467 103.784 140.046 103.594 140.512 103.213C140.978 102.827 141.325 102.31 141.552 101.662C141.785 101.014 141.901 100.293 141.901 99.4972C141.901 98.696 141.785 97.9716 141.552 97.3239C141.325 96.6705 140.978 96.1506 140.512 95.7642C140.046 95.3778 139.467 95.1847 138.773 95.1847C138.063 95.1847 137.472 95.3778 137.001 95.7642C136.535 96.1506 136.185 96.6705 135.952 97.3239C135.725 97.9716 135.612 98.696 135.612 99.4972C135.612 100.293 135.725 101.014 135.952 101.662C136.185 102.31 136.535 102.827 137.001 103.213C137.472 103.594 138.063 103.784 138.773 103.784ZM159.396 106.256C158.084 106.256 156.95 105.983 155.996 105.438C155.047 104.886 154.317 104.108 153.805 103.102C153.294 102.091 153.038 100.901 153.038 99.5312C153.038 98.1847 153.294 97.0028 153.805 95.9858C154.322 94.9631 155.044 94.1676 155.97 93.5994C156.896 93.0256 157.984 92.7386 159.234 92.7386C160.041 92.7386 160.803 92.8693 161.518 93.1307C162.24 93.3864 162.876 93.7841 163.428 94.3239C163.984 94.8636 164.422 95.5511 164.74 96.3864C165.058 97.2159 165.217 98.2045 165.217 99.3523V100.298H154.487V98.2188H162.26C162.254 97.6278 162.126 97.1023 161.876 96.642C161.626 96.1761 161.277 95.8097 160.828 95.5426C160.385 95.2756 159.868 95.142 159.277 95.142C158.646 95.142 158.092 95.2955 157.615 95.6023C157.138 95.9034 156.766 96.3011 156.499 96.7955C156.237 97.2841 156.104 97.821 156.098 98.4062V100.222C156.098 100.983 156.237 101.636 156.516 102.182C156.794 102.722 157.183 103.136 157.683 103.426C158.183 103.71 158.768 103.852 159.439 103.852C159.888 103.852 160.294 103.79 160.658 103.665C161.021 103.534 161.337 103.344 161.604 103.094C161.871 102.844 162.072 102.534 162.209 102.165L165.089 102.489C164.908 103.25 164.561 103.915 164.05 104.483C163.544 105.045 162.896 105.483 162.107 105.795C161.317 106.102 160.413 106.256 159.396 106.256ZM170.913 98.3295V106H167.827V92.9091H170.776V95.1335H170.93C171.231 94.4006 171.711 93.8182 172.37 93.3864C173.035 92.9545 173.856 92.7386 174.833 92.7386C175.737 92.7386 176.523 92.9318 177.194 93.3182C177.87 93.7045 178.393 94.2642 178.762 94.9972C179.137 95.7301 179.322 96.6193 179.316 97.6648V106H176.231V98.142C176.231 97.267 176.004 96.5824 175.549 96.0881C175.1 95.5937 174.478 95.3466 173.683 95.3466C173.143 95.3466 172.663 95.4659 172.242 95.7045C171.827 95.9375 171.501 96.2756 171.262 96.7188C171.029 97.1619 170.913 97.6989 170.913 98.3295ZM187.31 106.23C186.282 106.23 185.362 105.966 184.549 105.438C183.737 104.909 183.094 104.142 182.623 103.136C182.151 102.131 181.915 100.909 181.915 99.4716C181.915 98.017 182.154 96.7898 182.631 95.7898C183.114 94.7841 183.765 94.0256 184.583 93.5142C185.401 92.9972 186.313 92.7386 187.319 92.7386C188.086 92.7386 188.717 92.8693 189.211 93.1307C189.705 93.3864 190.097 93.696 190.387 94.0597C190.677 94.4176 190.901 94.7557 191.06 95.0739H191.188V88.5455H194.282V106H191.248V103.938H191.06C190.901 104.256 190.671 104.594 190.37 104.952C190.069 105.304 189.671 105.605 189.177 105.855C188.683 106.105 188.06 106.23 187.31 106.23ZM188.171 103.699C188.825 103.699 189.381 103.523 189.842 103.17C190.302 102.812 190.651 102.315 190.89 101.679C191.129 101.043 191.248 100.301 191.248 99.4545C191.248 98.608 191.129 97.8722 190.89 97.2472C190.657 96.6222 190.31 96.1364 189.85 95.7898C189.396 95.4432 188.836 95.2699 188.171 95.2699C187.484 95.2699 186.91 95.4489 186.45 95.8068C185.989 96.1648 185.643 96.6591 185.41 97.2898C185.177 97.9205 185.06 98.642 185.06 99.4545C185.06 100.273 185.177 101.003 185.41 101.645C185.648 102.281 185.998 102.784 186.458 103.153C186.924 103.517 187.495 103.699 188.171 103.699ZM203.365 106.256C202.053 106.256 200.919 105.983 199.964 105.438C199.016 104.886 198.286 104.108 197.774 103.102C197.263 102.091 197.007 100.901 197.007 99.5312C197.007 98.1847 197.263 97.0028 197.774 95.9858C198.291 94.9631 199.013 94.1676 199.939 93.5994C200.865 93.0256 201.953 92.7386 203.203 92.7386C204.01 92.7386 204.771 92.8693 205.487 93.1307C206.209 93.3864 206.845 93.7841 207.396 94.3239C207.953 94.8636 208.391 95.5511 208.709 96.3864C209.027 97.2159 209.186 98.2045 209.186 99.3523V100.298H198.456V98.2188H206.229C206.223 97.6278 206.095 97.1023 205.845 96.642C205.595 96.1761 205.246 95.8097 204.797 95.5426C204.354 95.2756 203.837 95.142 203.246 95.142C202.615 95.142 202.061 95.2955 201.584 95.6023C201.107 95.9034 200.734 96.3011 200.467 96.7955C200.206 97.2841 200.072 97.821 200.067 98.4062V100.222C200.067 100.983 200.206 101.636 200.484 102.182C200.763 102.722 201.152 103.136 201.652 103.426C202.152 103.71 202.737 103.852 203.408 103.852C203.857 103.852 204.263 103.79 204.626 103.665C204.99 103.534 205.305 103.344 205.572 103.094C205.839 102.844 206.041 102.534 206.178 102.165L209.058 102.489C208.876 103.25 208.53 103.915 208.018 104.483C207.513 105.045 206.865 105.483 206.075 105.795C205.286 106.102 204.382 106.256 203.365 106.256ZM211.796 106V92.9091H214.788V95.0909H214.924C215.163 94.3352 215.572 93.7528 216.151 93.3438C216.737 92.929 217.404 92.7216 218.154 92.7216C218.325 92.7216 218.515 92.7301 218.725 92.7472C218.941 92.7585 219.12 92.7784 219.262 92.8068V95.6449C219.131 95.5994 218.924 95.5597 218.64 95.5256C218.362 95.4858 218.092 95.4659 217.83 95.4659C217.268 95.4659 216.762 95.5881 216.313 95.8324C215.87 96.071 215.521 96.4034 215.265 96.8295C215.009 97.2557 214.881 97.7472 214.881 98.304V106H211.796ZM226.568 106.256C225.256 106.256 224.122 105.983 223.168 105.438C222.219 104.886 221.489 104.108 220.977 103.102C220.466 102.091 220.21 100.901 220.21 99.5312C220.21 98.1847 220.466 97.0028 220.977 95.9858C221.494 94.9631 222.216 94.1676 223.142 93.5994C224.068 93.0256 225.156 92.7386 226.406 92.7386C227.213 92.7386 227.974 92.8693 228.69 93.1307C229.412 93.3864 230.048 93.7841 230.599 94.3239C231.156 94.8636 231.594 95.5511 231.912 96.3864C232.23 97.2159 232.389 98.2045 232.389 99.3523V100.298H221.659V98.2188H229.432C229.426 97.6278 229.298 97.1023 229.048 96.642C228.798 96.1761 228.449 95.8097 228 95.5426C227.557 95.2756 227.04 95.142 226.449 95.142C225.818 95.142 225.264 95.2955 224.787 95.6023C224.31 95.9034 223.938 96.3011 223.67 96.7955C223.409 97.2841 223.276 97.821 223.27 98.4062V100.222C223.27 100.983 223.409 101.636 223.688 102.182C223.966 102.722 224.355 103.136 224.855 103.426C225.355 103.71 225.94 103.852 226.611 103.852C227.06 103.852 227.466 103.79 227.83 103.665C228.193 103.534 228.509 103.344 228.776 103.094C229.043 102.844 229.244 102.534 229.381 102.165L232.261 102.489C232.08 103.25 231.733 103.915 231.222 104.483C230.716 105.045 230.068 105.483 229.278 105.795C228.489 106.102 227.585 106.256 226.568 106.256ZM240.71 106.256C239.403 106.256 238.281 105.969 237.343 105.395C236.411 104.821 235.692 104.028 235.187 103.017C234.687 102 234.437 100.83 234.437 99.5057C234.437 98.1761 234.692 97.0028 235.204 95.9858C235.715 94.9631 236.437 94.1676 237.369 93.5994C238.306 93.0256 239.414 92.7386 240.692 92.7386C241.755 92.7386 242.695 92.9347 243.513 93.3267C244.337 93.7131 244.994 94.2614 245.482 94.9716C245.971 95.6761 246.249 96.5 246.317 97.4432H243.369C243.249 96.8125 242.965 96.2869 242.516 95.8665C242.073 95.4403 241.479 95.2273 240.735 95.2273C240.104 95.2273 239.55 95.3977 239.073 95.7386C238.596 96.0739 238.224 96.5568 237.957 97.1875C237.695 97.8182 237.565 98.5739 237.565 99.4545C237.565 100.347 237.695 101.114 237.957 101.756C238.218 102.392 238.585 102.884 239.056 103.23C239.533 103.571 240.093 103.741 240.735 103.741C241.19 103.741 241.596 103.656 241.954 103.486C242.317 103.31 242.621 103.057 242.866 102.727C243.11 102.398 243.278 101.997 243.369 101.526H246.317C246.244 102.452 245.971 103.273 245.499 103.989C245.028 104.699 244.386 105.256 243.573 105.659C242.761 106.057 241.806 106.256 240.71 106.256ZM239.823 105.932H241.494L241.357 106.656C241.891 106.736 242.343 106.94 242.712 107.27C243.087 107.605 243.275 108.085 243.275 108.71C243.281 109.517 242.92 110.165 242.192 110.653C241.465 111.142 240.428 111.386 239.082 111.386L239.048 109.869C239.701 109.869 240.221 109.781 240.607 109.605C240.994 109.435 241.19 109.162 241.195 108.787C241.207 108.423 241.07 108.156 240.786 107.986C240.508 107.821 240.065 107.707 239.457 107.645L239.823 105.932ZM254.561 106.256C253.283 106.256 252.175 105.974 251.237 105.412C250.3 104.849 249.572 104.062 249.055 103.051C248.544 102.04 248.288 100.858 248.288 99.5057C248.288 98.1534 248.544 96.9687 249.055 95.9517C249.572 94.9347 250.3 94.1449 251.237 93.5824C252.175 93.0199 253.283 92.7386 254.561 92.7386C255.839 92.7386 256.947 93.0199 257.885 93.5824C258.822 94.1449 259.547 94.9347 260.058 95.9517C260.575 96.9687 260.834 98.1534 260.834 99.5057C260.834 100.858 260.575 102.04 260.058 103.051C259.547 104.062 258.822 104.849 257.885 105.412C256.947 105.974 255.839 106.256 254.561 106.256ZM254.578 103.784C255.271 103.784 255.851 103.594 256.317 103.213C256.783 102.827 257.129 102.31 257.357 101.662C257.589 101.014 257.706 100.293 257.706 99.4972C257.706 98.696 257.589 97.9716 257.357 97.3239C257.129 96.6705 256.783 96.1506 256.317 95.7642C255.851 95.3778 255.271 95.1847 254.578 95.1847C253.868 95.1847 253.277 95.3778 252.805 95.7642C252.339 96.1506 251.99 96.6705 251.757 97.3239C251.53 97.9716 251.416 98.696 251.416 99.4972C251.416 100.293 251.53 101.014 251.757 101.662C251.99 102.31 252.339 102.827 252.805 103.213C253.277 103.594 253.868 103.784 254.578 103.784Z" fill="#404040"/>
    <path d="M158.25 54H174V56.625H158.25V54ZM155.625 47.4375H168.75V50.0625H155.625V47.4375Z" fill="#808080"/>
    <path d="M192.269 54.7954L188.331 45.6079C188.23 45.3717 188.062 45.1705 187.848 45.0291C187.633 44.8877 187.382 44.8124 187.125 44.8125H183.188V42.1875C183.188 41.8394 183.049 41.5056 182.803 41.2594C182.557 41.0133 182.223 40.875 181.875 40.875H160.875V43.5H180.563V59.9797C179.965 60.327 179.441 60.7893 179.023 61.3398C178.604 61.8904 178.299 62.5183 178.124 63.1875H169.876C169.557 61.9503 168.797 60.872 167.739 60.1548C166.682 59.4377 165.399 59.1308 164.131 59.2918C162.864 59.4529 161.698 60.0707 160.854 61.0294C160.009 61.9882 159.543 63.2222 159.543 64.5C159.543 65.7778 160.009 67.0118 160.854 67.9706C161.698 68.9293 162.864 69.5471 164.131 69.7082C165.399 69.8692 166.682 69.5623 167.739 68.8452C168.797 68.128 169.557 67.0497 169.876 65.8125H178.124C178.41 66.9389 179.062 67.938 179.98 68.6517C180.897 69.3653 182.026 69.7528 183.188 69.7528C184.35 69.7528 185.479 69.3653 186.396 68.6517C187.313 67.938 187.966 66.9389 188.251 65.8125H191.063C191.411 65.8125 191.745 65.6742 191.991 65.4281C192.237 65.1819 192.375 64.8481 192.375 64.5V55.3125C192.375 55.1347 192.339 54.9587 192.269 54.7954ZM164.813 67.125C164.293 67.125 163.786 66.971 163.354 66.6826C162.923 66.3942 162.586 65.9842 162.387 65.5045C162.189 65.0249 162.137 64.4971 162.238 63.9879C162.339 63.4787 162.589 63.011 162.956 62.6438C163.324 62.2767 163.791 62.0267 164.301 61.9254C164.81 61.8242 165.338 61.8761 165.817 62.0748C166.297 62.2735 166.707 62.6099 166.995 63.0416C167.284 63.4733 167.438 63.9808 167.438 64.5C167.437 65.196 167.16 65.8633 166.668 66.3554C166.176 66.8475 165.509 67.1243 164.813 67.125ZM183.188 47.4375H186.259L189.073 54H183.188V47.4375ZM183.188 67.125C182.668 67.125 182.161 66.971 181.729 66.6826C181.298 66.3942 180.961 65.9842 180.762 65.5045C180.564 65.0249 180.512 64.4971 180.613 63.9879C180.714 63.4787 180.964 63.011 181.331 62.6438C181.699 62.2767 182.166 62.0267 182.676 61.9254C183.185 61.8242 183.713 61.8761 184.192 62.0748C184.672 62.2735 185.082 62.6099 185.37 63.0416C185.659 63.4733 185.813 63.9808 185.813 64.5C185.812 65.196 185.535 65.8633 185.043 66.3554C184.551 66.8475 183.884 67.1243 183.188 67.125ZM189.75 63.1875H188.251C187.962 62.0633 187.308 61.0667 186.392 60.3542C185.475 59.6416 184.348 59.2532 183.188 59.25V56.625H189.75V63.1875Z" fill="#808080"/>
</svg>
