<svg width="136" height="136" viewBox="0 0 136 136" fill="none" xmlns="http://www.w3.org/2000/svg">
    <path d="M76.3509 17L110.351 51V119H31.0176V17H76.3509Z" stroke="#005BA5" stroke-width="6" stroke-linecap="round" stroke-linejoin="round"/>
    <path d="M70.8335 17V48.1667H107.667" stroke="#005BA5" stroke-width="5" stroke-linecap="round" stroke-linejoin="round"/>
    <path fill-rule="evenodd" clip-rule="evenodd" d="M85.3739 68.1934C85.174 68.3011 80.7798 72.5792 75.6089 77.7002L66.2073 87.0114L62.6185 83.4698C60.6446 81.5218 58.851 79.8385 58.6328 79.7286C58.4145 79.619 57.8422 79.5295 57.3611 79.5299C55.7241 79.5311 54.5804 80.6664 54.5791 82.2914C54.5787 82.769 54.6687 83.3371 54.7793 83.5539C55.0655 84.1151 64.3804 93.3875 64.9707 93.6986C65.5999 94.0302 66.8121 94.0302 67.4416 93.6989C67.7114 93.5568 72.7304 88.6672 78.5952 82.8328C85.9136 75.5522 89.2971 72.0661 89.3824 71.7182C89.7221 70.332 89.0878 68.8207 87.9391 68.2794C87.2323 67.9467 85.914 67.9025 85.3739 68.1934Z" fill="#005BA5"/>
</svg>
