<svg width="117" height="117" viewBox="0 0 117 117" fill="none" xmlns="http://www.w3.org/2000/svg">
    <path d="M12.1875 17.0625C12.1875 15.1231 12.9579 13.2631 14.3293 11.8918C15.7006 10.5204 17.5606 9.75 19.5 9.75H78C79.9394 9.75 81.7994 10.5204 83.1707 11.8918C84.5421 13.2631 85.3125 15.1231 85.3125 17.0625V107.25H19.5C17.5606 107.25 15.7006 106.48 14.3293 105.108C12.9579 103.737 12.1875 101.877 12.1875 99.9375V17.0625ZM85.3125 58.5C85.3125 57.2071 85.8261 55.9671 86.7404 55.0529C87.6546 54.1386 88.8946 53.625 90.1875 53.625H99.9375C101.23 53.625 102.47 54.1386 103.385 55.0529C104.299 55.9671 104.812 57.2071 104.812 58.5V99.9375C104.812 101.877 104.042 103.737 102.671 105.108C101.299 106.48 99.4394 107.25 97.5 107.25H85.3125V58.5Z" stroke="#005BA5" stroke-width="7" stroke-linejoin="round"/>
    <path d="M26.8125 29.25H46.3125M26.8125 46.3125H56.0625" stroke="#005BA5" stroke-width="7" stroke-linecap="round" stroke-linejoin="round"/>
</svg>
