<svg width="266" height="151" viewBox="0 0 266 151" fill="none" xmlns="http://www.w3.org/2000/svg">
    <rect x="1.5" y="1.5" width="263" height="148" rx="7.5" fill="white" stroke="white" stroke-width="3"/>
    <path d="M115.882 77V59.5455H127.234V62.196H119.044V66.9347H126.646V69.5852H119.044V74.3494H127.302V77H115.882ZM136.86 63.9091V66.2955H129.335V63.9091H136.86ZM131.193 60.7727H134.278V73.0625C134.278 73.4773 134.341 73.7955 134.466 74.017C134.596 74.233 134.767 74.3807 134.977 74.4602C135.187 74.5398 135.42 74.5795 135.676 74.5795C135.869 74.5795 136.045 74.5653 136.204 74.5369C136.369 74.5085 136.494 74.483 136.579 74.4602L137.099 76.8722C136.934 76.929 136.699 76.9915 136.392 77.0597C136.091 77.1278 135.721 77.1676 135.284 77.179C134.511 77.2017 133.815 77.0852 133.196 76.8295C132.576 76.5682 132.085 76.1648 131.721 75.6193C131.363 75.0739 131.187 74.392 131.193 73.5739V60.7727ZM139.441 77V63.9091H142.526V77H139.441ZM140.992 62.0511C140.503 62.0511 140.083 61.8892 139.73 61.5653C139.378 61.2358 139.202 60.8409 139.202 60.3807C139.202 59.9148 139.378 59.5199 139.73 59.196C140.083 58.8665 140.503 58.7017 140.992 58.7017C141.486 58.7017 141.907 58.8665 142.253 59.196C142.605 59.5199 142.782 59.9148 142.782 60.3807C142.782 60.8409 142.605 61.2358 142.253 61.5653C141.907 61.8892 141.486 62.0511 140.992 62.0511ZM154.434 81.9091V74.9375H154.306C154.147 75.2557 153.917 75.5937 153.616 75.9517C153.315 76.304 152.917 76.6051 152.423 76.8551C151.929 77.1051 151.306 77.2301 150.556 77.2301C149.528 77.2301 148.608 76.9659 147.795 76.4375C146.983 75.9091 146.341 75.142 145.869 74.1364C145.397 73.1307 145.162 71.9091 145.162 70.4716C145.162 69.017 145.4 67.7898 145.877 66.7898C146.36 65.7841 147.011 65.0256 147.829 64.5142C148.647 63.9972 149.559 63.7386 150.565 63.7386C151.332 63.7386 151.963 63.8693 152.457 64.1307C152.951 64.3864 153.343 64.696 153.633 65.0597C153.923 65.4176 154.147 65.7557 154.306 66.0739H154.494V63.9091H157.528V81.9091H154.434ZM151.417 74.6989C152.071 74.6989 152.627 74.5227 153.088 74.1705C153.548 73.8125 153.897 73.3153 154.136 72.679C154.375 72.0426 154.494 71.3011 154.494 70.4545C154.494 69.608 154.375 68.8722 154.136 68.2472C153.903 67.6222 153.556 67.1364 153.096 66.7898C152.642 66.4432 152.082 66.2699 151.417 66.2699C150.73 66.2699 150.156 66.4489 149.696 66.8068C149.235 67.1648 148.889 67.6591 148.656 68.2898C148.423 68.9205 148.306 69.642 148.306 70.4545C148.306 71.2727 148.423 72.0028 148.656 72.6449C148.895 73.2812 149.244 73.7841 149.704 74.1534C150.17 74.517 150.741 74.6989 151.417 74.6989ZM169.042 71.4943V63.9091H172.127V77H169.136V74.6733H169C168.704 75.4062 168.218 76.0057 167.542 76.4716C166.872 76.9375 166.045 77.1705 165.062 77.1705C164.204 77.1705 163.446 76.9801 162.787 76.5994C162.133 76.2131 161.622 75.6534 161.252 74.9205C160.883 74.1818 160.699 73.2898 160.699 72.2443V63.9091H163.784V71.767C163.784 72.5966 164.011 73.2557 164.466 73.7443C164.92 74.233 165.517 74.4773 166.255 74.4773C166.71 74.4773 167.15 74.3665 167.576 74.1449C168.002 73.9233 168.352 73.5938 168.625 73.1562C168.903 72.7131 169.042 72.1591 169.042 71.4943ZM181.096 77.2557C179.783 77.2557 178.65 76.983 177.695 76.4375C176.746 75.8864 176.016 75.108 175.505 74.1023C174.993 73.0909 174.738 71.9006 174.738 70.5312C174.738 69.1847 174.993 68.0028 175.505 66.9858C176.022 65.9631 176.743 65.1676 177.669 64.5994C178.596 64.0256 179.684 63.7386 180.934 63.7386C181.74 63.7386 182.502 63.8693 183.218 64.1307C183.939 64.3864 184.576 64.7841 185.127 65.3239C185.684 65.8636 186.121 66.5511 186.439 67.3864C186.757 68.2159 186.917 69.2045 186.917 70.3523V71.2983H176.186V69.2188H183.959C183.953 68.6278 183.826 68.1023 183.576 67.642C183.326 67.1761 182.976 66.8097 182.527 66.5426C182.084 66.2756 181.567 66.142 180.976 66.142C180.346 66.142 179.792 66.2955 179.314 66.6023C178.837 66.9034 178.465 67.3011 178.198 67.7955C177.936 68.2841 177.803 68.821 177.797 69.4062V71.2216C177.797 71.983 177.936 72.6364 178.215 73.1818C178.493 73.7216 178.882 74.1364 179.382 74.4261C179.882 74.7102 180.468 74.8523 181.138 74.8523C181.587 74.8523 181.993 74.7898 182.357 74.6648C182.721 74.5341 183.036 74.3438 183.303 74.0938C183.57 73.8438 183.772 73.5341 183.908 73.1648L186.789 73.4886C186.607 74.25 186.26 74.9148 185.749 75.483C185.243 76.0455 184.596 76.483 183.806 76.7955C183.016 77.1023 182.113 77.2557 181.096 77.2557ZM196.064 63.9091V66.2955H188.538V63.9091H196.064ZM190.396 60.7727H193.481V73.0625C193.481 73.4773 193.544 73.7955 193.669 74.017C193.799 74.233 193.97 74.3807 194.18 74.4602C194.39 74.5398 194.623 74.5795 194.879 74.5795C195.072 74.5795 195.248 74.5653 195.407 74.5369C195.572 74.5085 195.697 74.483 195.782 74.4602L196.302 76.8722C196.137 76.929 195.902 76.9915 195.595 77.0597C195.294 77.1278 194.924 77.1676 194.487 77.179C193.714 77.2017 193.018 77.0852 192.399 76.8295C191.779 76.5682 191.288 76.1648 190.924 75.6193C190.566 75.0739 190.39 74.392 190.396 73.5739V60.7727ZM202.411 77.2642C201.581 77.2642 200.834 77.1165 200.169 76.821C199.51 76.5199 198.988 76.0767 198.601 75.4915C198.221 74.9062 198.03 74.1847 198.03 73.3267C198.03 72.5881 198.167 71.9773 198.439 71.4943C198.712 71.0114 199.084 70.625 199.556 70.3352C200.027 70.0455 200.559 69.8267 201.15 69.679C201.746 69.5256 202.363 69.4148 202.999 69.3466C203.766 69.267 204.388 69.196 204.865 69.1335C205.343 69.0653 205.689 68.9631 205.905 68.8267C206.127 68.6847 206.238 68.4659 206.238 68.1705V68.1193C206.238 67.4773 206.047 66.9801 205.667 66.6278C205.286 66.2756 204.738 66.0994 204.022 66.0994C203.266 66.0994 202.667 66.2642 202.223 66.5938C201.786 66.9233 201.49 67.3125 201.337 67.7614L198.456 67.3523C198.684 66.5568 199.059 65.892 199.581 65.358C200.104 64.8182 200.743 64.4148 201.499 64.1477C202.255 63.875 203.09 63.7386 204.005 63.7386C204.635 63.7386 205.263 63.8125 205.888 63.9602C206.513 64.108 207.084 64.3523 207.601 64.6932C208.118 65.0284 208.533 65.4858 208.846 66.0653C209.164 66.6449 209.323 67.3693 209.323 68.2386V77H206.357V75.2017H206.255C206.067 75.5653 205.803 75.9062 205.462 76.2244C205.127 76.5369 204.703 76.7898 204.192 76.983C203.686 77.1705 203.093 77.2642 202.411 77.2642ZM203.212 74.9972C203.831 74.9972 204.368 74.875 204.823 74.6307C205.277 74.3807 205.627 74.0511 205.871 73.642C206.121 73.233 206.246 72.7869 206.246 72.304V70.7614C206.15 70.8409 205.985 70.9148 205.752 70.983C205.525 71.0511 205.269 71.1108 204.985 71.1619C204.701 71.2131 204.419 71.2585 204.141 71.2983C203.863 71.3381 203.621 71.3722 203.417 71.4006C202.956 71.4631 202.544 71.5653 202.181 71.7074C201.817 71.8494 201.53 72.0483 201.32 72.304C201.11 72.554 201.005 72.8778 201.005 73.2756C201.005 73.8438 201.212 74.2727 201.627 74.5625C202.042 74.8523 202.57 74.9972 203.212 74.9972ZM125.596 106.256C124.283 106.256 123.15 105.983 122.195 105.438C121.246 104.886 120.516 104.108 120.005 103.102C119.493 102.091 119.238 100.901 119.238 99.5312C119.238 98.1847 119.493 97.0028 120.005 95.9858C120.522 94.9631 121.243 94.1676 122.169 93.5994C123.096 93.0256 124.184 92.7386 125.434 92.7386C126.24 92.7386 127.002 92.8693 127.718 93.1307C128.439 93.3864 129.076 93.7841 129.627 94.3239C130.184 94.8636 130.621 95.5511 130.939 96.3864C131.257 97.2159 131.417 98.2045 131.417 99.3523V100.298H120.686V98.2188H128.459C128.453 97.6278 128.326 97.1023 128.076 96.642C127.826 96.1761 127.476 95.8097 127.027 95.5426C126.584 95.2756 126.067 95.142 125.476 95.142C124.846 95.142 124.292 95.2955 123.814 95.6023C123.337 95.9034 122.965 96.3011 122.698 96.7955C122.436 97.2841 122.303 97.821 122.297 98.4062V100.222C122.297 100.983 122.436 101.636 122.715 102.182C122.993 102.722 123.382 103.136 123.882 103.426C124.382 103.71 124.968 103.852 125.638 103.852C126.087 103.852 126.493 103.79 126.857 103.665C127.221 103.534 127.536 103.344 127.803 103.094C128.07 102.844 128.272 102.534 128.408 102.165L131.289 102.489C131.107 103.25 130.76 103.915 130.249 104.483C129.743 105.045 129.096 105.483 128.306 105.795C127.516 106.102 126.613 106.256 125.596 106.256ZM136.268 92.9091L138.91 97.7415L141.595 92.9091H144.859L140.913 99.4545L144.927 106H141.68L138.91 101.287L136.166 106H132.893L136.882 99.4545L132.995 92.9091H136.268ZM153.782 92.9091V95.2955H146.257V92.9091H153.782ZM148.115 89.7727H151.2V102.062C151.2 102.477 151.262 102.795 151.387 103.017C151.518 103.233 151.689 103.381 151.899 103.46C152.109 103.54 152.342 103.58 152.598 103.58C152.791 103.58 152.967 103.565 153.126 103.537C153.291 103.509 153.416 103.483 153.501 103.46L154.021 105.872C153.856 105.929 153.62 105.991 153.314 106.06C153.012 106.128 152.643 106.168 152.206 106.179C151.433 106.202 150.737 106.085 150.118 105.83C149.498 105.568 149.007 105.165 148.643 104.619C148.285 104.074 148.109 103.392 148.115 102.574V89.7727ZM162.017 106.256C160.705 106.256 159.571 105.983 158.617 105.438C157.668 104.886 156.938 104.108 156.426 103.102C155.915 102.091 155.659 100.901 155.659 99.5312C155.659 98.1847 155.915 97.0028 156.426 95.9858C156.944 94.9631 157.665 94.1676 158.591 93.5994C159.517 93.0256 160.605 92.7386 161.855 92.7386C162.662 92.7386 163.424 92.8693 164.14 93.1307C164.861 93.3864 165.498 93.7841 166.049 94.3239C166.605 94.8636 167.043 95.5511 167.361 96.3864C167.679 97.2159 167.838 98.2045 167.838 99.3523V100.298H157.108V98.2188H164.881C164.875 97.6278 164.748 97.1023 164.498 96.642C164.248 96.1761 163.898 95.8097 163.449 95.5426C163.006 95.2756 162.489 95.142 161.898 95.142C161.267 95.142 160.713 95.2955 160.236 95.6023C159.759 95.9034 159.387 96.3011 159.12 96.7955C158.858 97.2841 158.725 97.821 158.719 98.4062V100.222C158.719 100.983 158.858 101.636 159.137 102.182C159.415 102.722 159.804 103.136 160.304 103.426C160.804 103.71 161.39 103.852 162.06 103.852C162.509 103.852 162.915 103.79 163.279 103.665C163.642 103.534 163.958 103.344 164.225 103.094C164.492 102.844 164.694 102.534 164.83 102.165L167.711 102.489C167.529 103.25 167.182 103.915 166.671 104.483C166.165 105.045 165.517 105.483 164.728 105.795C163.938 106.102 163.034 106.256 162.017 106.256ZM170.449 106V92.9091H173.44V95.0909H173.576C173.815 94.3352 174.224 93.7528 174.804 93.3438C175.389 92.929 176.056 92.7216 176.806 92.7216C176.977 92.7216 177.167 92.7301 177.377 92.7472C177.593 92.7585 177.772 92.7784 177.914 92.8068V95.6449C177.784 95.5994 177.576 95.5597 177.292 95.5256C177.014 95.4858 176.744 95.4659 176.483 95.4659C175.92 95.4659 175.414 95.5881 174.966 95.8324C174.522 96.071 174.173 96.4034 173.917 96.8295C173.662 97.2557 173.534 97.7472 173.534 98.304V106H170.449ZM183.049 98.3295V106H179.964V92.9091H182.913V95.1335H183.066C183.368 94.4006 183.848 93.8182 184.507 93.3864C185.172 92.9545 185.993 92.7386 186.97 92.7386C187.873 92.7386 188.66 92.9318 189.331 93.3182C190.007 93.7045 190.529 94.2642 190.899 94.9972C191.274 95.7301 191.458 96.6193 191.453 97.6648V106H188.368V98.142C188.368 97.267 188.14 96.5824 187.686 96.0881C187.237 95.5937 186.615 95.3466 185.819 95.3466C185.279 95.3466 184.799 95.4659 184.379 95.7045C183.964 95.9375 183.637 96.2756 183.399 96.7188C183.166 97.1619 183.049 97.6989 183.049 98.3295ZM198.356 106.264C197.527 106.264 196.779 106.116 196.115 105.821C195.456 105.52 194.933 105.077 194.547 104.491C194.166 103.906 193.975 103.185 193.975 102.327C193.975 101.588 194.112 100.977 194.385 100.494C194.657 100.011 195.029 99.625 195.501 99.3352C195.973 99.0455 196.504 98.8267 197.095 98.679C197.691 98.5256 198.308 98.4148 198.944 98.3466C199.711 98.267 200.333 98.196 200.811 98.1335C201.288 98.0653 201.635 97.9631 201.85 97.8267C202.072 97.6847 202.183 97.4659 202.183 97.1705V97.1193C202.183 96.4773 201.993 95.9801 201.612 95.6278C201.231 95.2756 200.683 95.0994 199.967 95.0994C199.211 95.0994 198.612 95.2642 198.169 95.5938C197.731 95.9233 197.436 96.3125 197.282 96.7614L194.402 96.3523C194.629 95.5568 195.004 94.892 195.527 94.358C196.049 93.8182 196.689 93.4148 197.444 93.1477C198.2 92.875 199.035 92.7386 199.95 92.7386C200.581 92.7386 201.208 92.8125 201.833 92.9602C202.458 93.108 203.029 93.3523 203.547 93.6932C204.064 94.0284 204.478 94.4858 204.791 95.0653C205.109 95.6449 205.268 96.3693 205.268 97.2386V106H202.302V104.202H202.2C202.012 104.565 201.748 104.906 201.407 105.224C201.072 105.537 200.649 105.79 200.137 105.983C199.632 106.17 199.038 106.264 198.356 106.264ZM199.157 103.997C199.777 103.997 200.314 103.875 200.768 103.631C201.223 103.381 201.572 103.051 201.816 102.642C202.066 102.233 202.191 101.787 202.191 101.304V99.7614C202.095 99.8409 201.93 99.9148 201.697 99.983C201.47 100.051 201.214 100.111 200.93 100.162C200.646 100.213 200.365 100.259 200.086 100.298C199.808 100.338 199.566 100.372 199.362 100.401C198.902 100.463 198.49 100.565 198.126 100.707C197.762 100.849 197.475 101.048 197.265 101.304C197.055 101.554 196.95 101.878 196.95 102.276C196.95 102.844 197.157 103.273 197.572 103.562C197.987 103.852 198.515 103.997 199.157 103.997Z" fill="#404040"/>
    <g clip-path="url(#clip0_0_1)">
        <path d="M57.0464 62.2686C56.6957 62.1281 56.3043 62.1281 55.9536 62.2686L38.4226 69.2804L45.4844 72.1033L63.5618 64.8742L57.0464 62.2686ZM67.5156 66.4575L49.4383 73.6867L56.5 76.5096L74.5774 69.2804L67.5156 66.4575ZM77.0625 71.4512L57.9688 79.0887V102.36L77.0625 94.7221V71.4542V71.4512ZM55.0312 102.363V79.0858L35.9375 71.4512V94.725L55.0312 102.363ZM54.8638 59.5397C55.9142 59.1196 57.0858 59.1196 58.1362 59.5397L79.0776 67.9174C79.3499 68.0265 79.5833 68.2147 79.7477 68.4576C79.912 68.7005 79.9999 68.9871 80 69.2804V94.725C79.9996 95.312 79.8234 95.8854 79.4941 96.3713C79.1647 96.8572 78.6974 97.2333 78.1523 97.451L57.0464 105.893C56.6957 106.034 56.3043 106.034 55.9536 105.893L34.8506 97.451C34.305 97.2337 33.837 96.8578 33.5071 96.3719C33.1773 95.886 33.0006 95.3123 33 94.725V69.2804C33.0001 68.9871 33.088 68.7005 33.2524 68.4576C33.4167 68.2147 33.6501 68.0265 33.9224 67.9174L54.8638 59.5397Z" fill="#404040"/>
    </g>
    <defs>
        <clipPath id="clip0_0_1">
            <rect width="47" height="47" fill="white" transform="translate(33 59)"/>
        </clipPath>
    </defs>
</svg>
