<svg width="266" height="151" viewBox="0 0 266 151" fill="none" xmlns="http://www.w3.org/2000/svg">
    <rect x="1.5" y="1.5" width="263" height="148" rx="7.5" fill="white" stroke="white" stroke-width="3"/>
    <path d="M117.296 77V59.5455H128.648V62.196H120.458V66.9347H128.06V69.5852H120.458V74.3494H128.716V77H117.296ZM138.275 63.9091V66.2955H130.749V63.9091H138.275ZM132.607 60.7727H135.692V73.0625C135.692 73.4773 135.755 73.7955 135.88 74.017C136.01 74.233 136.181 74.3807 136.391 74.4602C136.601 74.5398 136.834 74.5795 137.09 74.5795C137.283 74.5795 137.459 74.5653 137.618 74.5369C137.783 74.5085 137.908 74.483 137.993 74.4602L138.513 76.8722C138.348 76.929 138.113 76.9915 137.806 77.0597C137.505 77.1278 137.135 77.1676 136.698 77.179C135.925 77.2017 135.229 77.0852 134.61 76.8295C133.99 76.5682 133.499 76.1648 133.135 75.6193C132.777 75.0739 132.601 74.392 132.607 73.5739V60.7727ZM140.855 77V63.9091H143.94V77H140.855ZM142.406 62.0511C141.917 62.0511 141.497 61.8892 141.145 61.5653C140.792 61.2358 140.616 60.8409 140.616 60.3807C140.616 59.9148 140.792 59.5199 141.145 59.196C141.497 58.8665 141.917 58.7017 142.406 58.7017C142.9 58.7017 143.321 58.8665 143.667 59.196C144.02 59.5199 144.196 59.9148 144.196 60.3807C144.196 60.8409 144.02 61.2358 143.667 61.5653C143.321 61.8892 142.9 62.0511 142.406 62.0511ZM155.848 81.9091V74.9375H155.721C155.561 75.2557 155.331 75.5937 155.03 75.9517C154.729 76.304 154.331 76.6051 153.837 76.8551C153.343 77.1051 152.721 77.2301 151.971 77.2301C150.942 77.2301 150.022 76.9659 149.209 76.4375C148.397 75.9091 147.755 75.142 147.283 74.1364C146.811 73.1307 146.576 71.9091 146.576 70.4716C146.576 69.017 146.814 67.7898 147.292 66.7898C147.775 65.7841 148.425 65.0256 149.243 64.5142C150.061 63.9972 150.973 63.7386 151.979 63.7386C152.746 63.7386 153.377 63.8693 153.871 64.1307C154.365 64.3864 154.757 64.696 155.047 65.0597C155.337 65.4176 155.561 65.7557 155.721 66.0739H155.908V63.9091H158.942V81.9091H155.848ZM152.831 74.6989C153.485 74.6989 154.042 74.5227 154.502 74.1705C154.962 73.8125 155.311 73.3153 155.55 72.679C155.789 72.0426 155.908 71.3011 155.908 70.4545C155.908 69.608 155.789 68.8722 155.55 68.2472C155.317 67.6222 154.971 67.1364 154.51 66.7898C154.056 66.4432 153.496 66.2699 152.831 66.2699C152.144 66.2699 151.57 66.4489 151.11 66.8068C150.65 67.1648 150.303 67.6591 150.07 68.2898C149.837 68.9205 149.721 69.642 149.721 70.4545C149.721 71.2727 149.837 72.0028 150.07 72.6449C150.309 73.2812 150.658 73.7841 151.118 74.1534C151.584 74.517 152.155 74.6989 152.831 74.6989ZM170.456 71.4943V63.9091H173.542V77H170.55V74.6733H170.414C170.118 75.4062 169.632 76.0057 168.956 76.4716C168.286 76.9375 167.459 77.1705 166.476 77.1705C165.618 77.1705 164.86 76.9801 164.201 76.5994C163.547 76.2131 163.036 75.6534 162.667 74.9205C162.297 74.1818 162.113 73.2898 162.113 72.2443V63.9091H165.198V71.767C165.198 72.5966 165.425 73.2557 165.88 73.7443C166.334 74.233 166.931 74.4773 167.669 74.4773C168.124 74.4773 168.564 74.3665 168.99 74.1449C169.417 73.9233 169.766 73.5938 170.039 73.1562C170.317 72.7131 170.456 72.1591 170.456 71.4943ZM182.51 77.2557C181.197 77.2557 180.064 76.983 179.109 76.4375C178.16 75.8864 177.43 75.108 176.919 74.1023C176.407 73.0909 176.152 71.9006 176.152 70.5312C176.152 69.1847 176.407 68.0028 176.919 66.9858C177.436 65.9631 178.157 65.1676 179.083 64.5994C180.01 64.0256 181.098 63.7386 182.348 63.7386C183.154 63.7386 183.916 63.8693 184.632 64.1307C185.353 64.3864 185.99 64.7841 186.541 65.3239C187.098 65.8636 187.535 66.5511 187.853 67.3864C188.172 68.2159 188.331 69.2045 188.331 70.3523V71.2983H177.6V69.2188H185.373C185.368 68.6278 185.24 68.1023 184.99 67.642C184.74 67.1761 184.39 66.8097 183.941 66.5426C183.498 66.2756 182.981 66.142 182.39 66.142C181.76 66.142 181.206 66.2955 180.728 66.6023C180.251 66.9034 179.879 67.3011 179.612 67.7955C179.35 68.2841 179.217 68.821 179.211 69.4062V71.2216C179.211 71.983 179.35 72.6364 179.629 73.1818C179.907 73.7216 180.297 74.1364 180.797 74.4261C181.297 74.7102 181.882 74.8523 182.552 74.8523C183.001 74.8523 183.407 74.7898 183.771 74.6648C184.135 74.5341 184.45 74.3438 184.717 74.0938C184.984 73.8438 185.186 73.5341 185.322 73.1648L188.203 73.4886C188.021 74.25 187.674 74.9148 187.163 75.483C186.657 76.0455 186.01 76.483 185.22 76.7955C184.43 77.1023 183.527 77.2557 182.51 77.2557ZM197.478 63.9091V66.2955H189.952V63.9091H197.478ZM191.81 60.7727H194.895V73.0625C194.895 73.4773 194.958 73.7955 195.083 74.017C195.213 74.233 195.384 74.3807 195.594 74.4602C195.804 74.5398 196.037 74.5795 196.293 74.5795C196.486 74.5795 196.662 74.5653 196.821 74.5369C196.986 74.5085 197.111 74.483 197.196 74.4602L197.716 76.8722C197.551 76.929 197.316 76.9915 197.009 77.0597C196.708 77.1278 196.338 77.1676 195.901 77.179C195.128 77.2017 194.432 77.0852 193.813 76.8295C193.194 76.5682 192.702 76.1648 192.338 75.6193C191.98 75.0739 191.804 74.392 191.81 73.5739V60.7727ZM203.825 77.2642C202.995 77.2642 202.248 77.1165 201.583 76.821C200.924 76.5199 200.402 76.0767 200.015 75.4915C199.635 74.9062 199.444 74.1847 199.444 73.3267C199.444 72.5881 199.581 71.9773 199.853 71.4943C200.126 71.0114 200.498 70.625 200.97 70.3352C201.441 70.0455 201.973 69.8267 202.564 69.679C203.16 69.5256 203.777 69.4148 204.413 69.3466C205.18 69.267 205.802 69.196 206.279 69.1335C206.757 69.0653 207.103 68.9631 207.319 68.8267C207.541 68.6847 207.652 68.4659 207.652 68.1705V68.1193C207.652 67.4773 207.461 66.9801 207.081 66.6278C206.7 66.2756 206.152 66.0994 205.436 66.0994C204.68 66.0994 204.081 66.2642 203.637 66.5938C203.2 66.9233 202.904 67.3125 202.751 67.7614L199.87 67.3523C200.098 66.5568 200.473 65.892 200.995 65.358C201.518 64.8182 202.157 64.4148 202.913 64.1477C203.669 63.875 204.504 63.7386 205.419 63.7386C206.049 63.7386 206.677 63.8125 207.302 63.9602C207.927 64.108 208.498 64.3523 209.015 64.6932C209.532 65.0284 209.947 65.4858 210.26 66.0653C210.578 66.6449 210.737 67.3693 210.737 68.2386V77H207.771V75.2017H207.669C207.481 75.5653 207.217 75.9062 206.876 76.2244C206.541 76.5369 206.118 76.7898 205.606 76.983C205.1 77.1705 204.507 77.2642 203.825 77.2642ZM204.626 74.9972C205.245 74.9972 205.782 74.875 206.237 74.6307C206.691 74.3807 207.041 74.0511 207.285 73.642C207.535 73.233 207.66 72.7869 207.66 72.304V70.7614C207.564 70.8409 207.399 70.9148 207.166 70.983C206.939 71.0511 206.683 71.1108 206.399 71.1619C206.115 71.2131 205.833 71.2585 205.555 71.2983C205.277 71.3381 205.035 71.3722 204.831 71.4006C204.37 71.4631 203.958 71.5653 203.595 71.7074C203.231 71.8494 202.944 72.0483 202.734 72.304C202.524 72.554 202.419 72.8778 202.419 73.2756C202.419 73.8438 202.626 74.2727 203.041 74.5625C203.456 74.8523 203.984 74.9972 204.626 74.9972ZM224.186 67.3693L221.373 67.6761C221.294 67.392 221.154 67.125 220.956 66.875C220.762 66.625 220.501 66.4233 220.172 66.2699C219.842 66.1165 219.439 66.0398 218.961 66.0398C218.319 66.0398 217.779 66.179 217.342 66.4574C216.91 66.7358 216.697 67.0966 216.703 67.5398C216.697 67.9205 216.836 68.2301 217.12 68.4688C217.41 68.7074 217.887 68.9034 218.552 69.0568L220.785 69.5341C222.024 69.8011 222.944 70.2244 223.547 70.804C224.154 71.3835 224.461 72.142 224.467 73.0795C224.461 73.9034 224.22 74.6307 223.743 75.2614C223.271 75.8864 222.615 76.375 221.774 76.7273C220.933 77.0795 219.967 77.2557 218.876 77.2557C217.274 77.2557 215.984 76.9205 215.007 76.25C214.029 75.5739 213.447 74.6335 213.26 73.429L216.268 73.1392C216.404 73.7301 216.694 74.1761 217.137 74.4773C217.581 74.7784 218.157 74.929 218.868 74.929C219.6 74.929 220.189 74.7784 220.632 74.4773C221.081 74.1761 221.305 73.804 221.305 73.3608C221.305 72.9858 221.16 72.6761 220.87 72.4318C220.586 72.1875 220.143 72 219.541 71.8693L217.308 71.4006C216.052 71.1392 215.123 70.6989 214.521 70.0795C213.919 69.4545 213.62 68.6648 213.626 67.7102C213.62 66.9034 213.839 66.2045 214.282 65.6136C214.731 65.017 215.353 64.5568 216.149 64.233C216.95 63.9034 217.873 63.7386 218.919 63.7386C220.453 63.7386 221.66 64.0653 222.541 64.7188C223.427 65.3722 223.975 66.2557 224.186 67.3693ZM92.7141 106V92.9091H95.663V95.1335H95.8164C96.0891 94.3835 96.5408 93.7983 97.1715 93.3778C97.8022 92.9517 98.555 92.7386 99.43 92.7386C100.316 92.7386 101.064 92.9545 101.672 93.3864C102.285 93.8125 102.717 94.3949 102.967 95.1335H103.103C103.393 94.4062 103.882 93.8267 104.569 93.3949C105.262 92.9574 106.083 92.7386 107.032 92.7386C108.237 92.7386 109.22 93.1193 109.981 93.8807C110.743 94.642 111.123 95.7528 111.123 97.2131V106H108.029V97.6903C108.029 96.8778 107.814 96.2841 107.382 95.9091C106.95 95.5284 106.422 95.3381 105.797 95.3381C105.052 95.3381 104.47 95.571 104.049 96.0369C103.635 96.4972 103.427 97.0966 103.427 97.8352V106H100.402V97.5625C100.402 96.8864 100.197 96.3466 99.788 95.9432C99.3846 95.5398 98.8562 95.3381 98.2028 95.3381C97.7596 95.3381 97.3562 95.4517 96.9925 95.679C96.6289 95.9006 96.3391 96.2159 96.1232 96.625C95.9073 97.0284 95.7994 97.5 95.7994 98.0398V106H92.7141ZM120.049 106.256C118.736 106.256 117.603 105.983 116.648 105.438C115.699 104.886 114.969 104.108 114.458 103.102C113.946 102.091 113.691 100.901 113.691 99.5312C113.691 98.1847 113.946 97.0028 114.458 95.9858C114.975 94.9631 115.696 94.1676 116.623 93.5994C117.549 93.0256 118.637 92.7386 119.887 92.7386C120.694 92.7386 121.455 92.8693 122.171 93.1307C122.892 93.3864 123.529 93.7841 124.08 94.3239C124.637 94.8636 125.074 95.5511 125.392 96.3864C125.711 97.2159 125.87 98.2045 125.87 99.3523V100.298H115.14V98.2188H122.912C122.907 97.6278 122.779 97.1023 122.529 96.642C122.279 96.1761 121.929 95.8097 121.48 95.5426C121.037 95.2756 120.52 95.142 119.929 95.142C119.299 95.142 118.745 95.2955 118.267 95.6023C117.79 95.9034 117.418 96.3011 117.151 96.7955C116.89 97.2841 116.756 97.821 116.75 98.4062V100.222C116.75 100.983 116.89 101.636 117.168 102.182C117.446 102.722 117.836 103.136 118.336 103.426C118.836 103.71 119.421 103.852 120.091 103.852C120.54 103.852 120.946 103.79 121.31 103.665C121.674 103.534 121.989 103.344 122.256 103.094C122.523 102.844 122.725 102.534 122.861 102.165L125.742 102.489C125.56 103.25 125.213 103.915 124.702 104.483C124.196 105.045 123.549 105.483 122.759 105.795C121.969 106.102 121.066 106.256 120.049 106.256ZM133.338 106.23C132.309 106.23 131.389 105.966 130.576 105.438C129.764 104.909 129.122 104.142 128.65 103.136C128.179 102.131 127.943 100.909 127.943 99.4716C127.943 98.017 128.181 96.7898 128.659 95.7898C129.142 94.7841 129.792 94.0256 130.61 93.5142C131.429 92.9972 132.341 92.7386 133.346 92.7386C134.113 92.7386 134.744 92.8693 135.238 93.1307C135.733 93.3864 136.125 93.696 136.414 94.0597C136.704 94.4176 136.929 94.7557 137.088 95.0739H137.216V88.5455H140.309V106H137.275V103.938H137.088C136.929 104.256 136.699 104.594 136.397 104.952C136.096 105.304 135.699 105.605 135.204 105.855C134.71 106.105 134.088 106.23 133.338 106.23ZM134.199 103.699C134.852 103.699 135.409 103.523 135.869 103.17C136.329 102.812 136.679 102.315 136.917 101.679C137.156 101.043 137.275 100.301 137.275 99.4545C137.275 98.608 137.156 97.8722 136.917 97.2472C136.684 96.6222 136.338 96.1364 135.877 95.7898C135.423 95.4432 134.863 95.2699 134.199 95.2699C133.511 95.2699 132.937 95.4489 132.477 95.8068C132.017 96.1648 131.67 96.6591 131.437 97.2898C131.204 97.9205 131.088 98.642 131.088 99.4545C131.088 100.273 131.204 101.003 131.437 101.645C131.676 102.281 132.025 102.784 132.485 103.153C132.951 103.517 133.522 103.699 134.199 103.699ZM143.597 106V92.9091H146.682V106H143.597ZM145.148 91.0511C144.659 91.0511 144.239 90.8892 143.887 90.5653C143.534 90.2358 143.358 89.8409 143.358 89.3807C143.358 88.9148 143.534 88.5199 143.887 88.196C144.239 87.8665 144.659 87.7017 145.148 87.7017C145.642 87.7017 146.063 87.8665 146.409 88.196C146.762 88.5199 146.938 88.9148 146.938 89.3807C146.938 89.8409 146.762 90.2358 146.409 90.5653C146.063 90.8892 145.642 91.0511 145.148 91.0511ZM155.565 106.256C154.258 106.256 153.136 105.969 152.199 105.395C151.267 104.821 150.548 104.028 150.042 103.017C149.542 102 149.292 100.83 149.292 99.5057C149.292 98.1761 149.548 97.0028 150.059 95.9858C150.571 94.9631 151.292 94.1676 152.224 93.5994C153.162 93.0256 154.27 92.7386 155.548 92.7386C156.61 92.7386 157.551 92.9347 158.369 93.3267C159.193 93.7131 159.849 94.2614 160.338 94.9716C160.826 95.6761 161.105 96.5 161.173 97.4432H158.224C158.105 96.8125 157.821 96.2869 157.372 95.8665C156.929 95.4403 156.335 95.2273 155.591 95.2273C154.96 95.2273 154.406 95.3977 153.929 95.7386C153.451 96.0739 153.079 96.5568 152.812 97.1875C152.551 97.8182 152.42 98.5739 152.42 99.4545C152.42 100.347 152.551 101.114 152.812 101.756C153.074 102.392 153.44 102.884 153.912 103.23C154.389 103.571 154.949 103.741 155.591 103.741C156.045 103.741 156.451 103.656 156.809 103.486C157.173 103.31 157.477 103.057 157.721 102.727C157.966 102.398 158.133 101.997 158.224 101.526H161.173C161.099 102.452 160.826 103.273 160.355 103.989C159.883 104.699 159.241 105.256 158.429 105.659C157.616 106.057 156.662 106.256 155.565 106.256ZM167.473 106.264C166.644 106.264 165.897 106.116 165.232 105.821C164.573 105.52 164.05 105.077 163.664 104.491C163.283 103.906 163.093 103.185 163.093 102.327C163.093 101.588 163.229 100.977 163.502 100.494C163.775 100.011 164.147 99.625 164.618 99.3352C165.09 99.0455 165.621 98.8267 166.212 98.679C166.809 98.5256 167.425 98.4148 168.061 98.3466C168.828 98.267 169.451 98.196 169.928 98.1335C170.405 98.0653 170.752 97.9631 170.968 97.8267C171.189 97.6847 171.3 97.4659 171.3 97.1705V97.1193C171.3 96.4773 171.11 95.9801 170.729 95.6278C170.348 95.2756 169.8 95.0994 169.084 95.0994C168.328 95.0994 167.729 95.2642 167.286 95.5938C166.848 95.9233 166.553 96.3125 166.4 96.7614L163.519 96.3523C163.746 95.5568 164.121 94.892 164.644 94.358C165.167 93.8182 165.806 93.4148 166.561 93.1477C167.317 92.875 168.152 92.7386 169.067 92.7386C169.698 92.7386 170.326 92.8125 170.951 92.9602C171.576 93.108 172.147 93.3523 172.664 93.6932C173.181 94.0284 173.596 94.4858 173.908 95.0653C174.226 95.6449 174.385 96.3693 174.385 97.2386V106H171.419V104.202H171.317C171.13 104.565 170.865 104.906 170.525 105.224C170.189 105.537 169.766 105.79 169.255 105.983C168.749 106.17 168.155 106.264 167.473 106.264ZM168.275 103.997C168.894 103.997 169.431 103.875 169.885 103.631C170.34 103.381 170.689 103.051 170.934 102.642C171.184 102.233 171.309 101.787 171.309 101.304V99.7614C171.212 99.8409 171.047 99.9148 170.814 99.983C170.587 100.051 170.331 100.111 170.047 100.162C169.763 100.213 169.482 100.259 169.203 100.298C168.925 100.338 168.684 100.372 168.479 100.401C168.019 100.463 167.607 100.565 167.243 100.707C166.88 100.849 166.593 101.048 166.382 101.304C166.172 101.554 166.067 101.878 166.067 102.276C166.067 102.844 166.275 103.273 166.689 103.562C167.104 103.852 167.632 103.997 168.275 103.997ZM177.488 106V92.9091H180.436V95.1335H180.59C180.863 94.3835 181.314 93.7983 181.945 93.3778C182.576 92.9517 183.328 92.7386 184.203 92.7386C185.09 92.7386 185.837 92.9545 186.445 93.3864C187.059 93.8125 187.49 94.3949 187.74 95.1335H187.877C188.167 94.4062 188.655 93.8267 189.343 93.3949C190.036 92.9574 190.857 92.7386 191.806 92.7386C193.01 92.7386 193.993 93.1193 194.755 93.8807C195.516 94.642 195.897 95.7528 195.897 97.2131V106H192.803V97.6903C192.803 96.8778 192.587 96.2841 192.155 95.9091C191.723 95.5284 191.195 95.3381 190.57 95.3381C189.826 95.3381 189.243 95.571 188.823 96.0369C188.408 96.4972 188.201 97.0966 188.201 97.8352V106H185.175V97.5625C185.175 96.8864 184.971 96.3466 184.561 95.9432C184.158 95.5398 183.63 95.3381 182.976 95.3381C182.533 95.3381 182.13 95.4517 181.766 95.679C181.402 95.9006 181.113 96.2159 180.897 96.625C180.681 97.0284 180.573 97.5 180.573 98.0398V106H177.488ZM204.822 106.256C203.51 106.256 202.376 105.983 201.422 105.438C200.473 104.886 199.743 104.108 199.231 103.102C198.72 102.091 198.464 100.901 198.464 99.5312C198.464 98.1847 198.72 97.0028 199.231 95.9858C199.748 94.9631 200.47 94.1676 201.396 93.5994C202.322 93.0256 203.41 92.7386 204.66 92.7386C205.467 92.7386 206.228 92.8693 206.944 93.1307C207.666 93.3864 208.302 93.7841 208.853 94.3239C209.41 94.8636 209.848 95.5511 210.166 96.3864C210.484 97.2159 210.643 98.2045 210.643 99.3523V100.298H199.913V98.2188H207.686C207.68 97.6278 207.552 97.1023 207.302 96.642C207.052 96.1761 206.703 95.8097 206.254 95.5426C205.811 95.2756 205.294 95.142 204.703 95.142C204.072 95.142 203.518 95.2955 203.041 95.6023C202.564 95.9034 202.191 96.3011 201.924 96.7955C201.663 97.2841 201.529 97.821 201.524 98.4062V100.222C201.524 100.983 201.663 101.636 201.941 102.182C202.22 102.722 202.609 103.136 203.109 103.426C203.609 103.71 204.194 103.852 204.865 103.852C205.314 103.852 205.72 103.79 206.083 103.665C206.447 103.534 206.762 103.344 207.029 103.094C207.297 102.844 207.498 102.534 207.635 102.165L210.515 102.489C210.333 103.25 209.987 103.915 209.475 104.483C208.97 105.045 208.322 105.483 207.532 105.795C206.743 106.102 205.839 106.256 204.822 106.256ZM216.338 98.3295V106H213.253V92.9091H216.202V95.1335H216.355C216.657 94.4006 217.137 93.8182 217.796 93.3864C218.461 92.9545 219.282 92.7386 220.259 92.7386C221.162 92.7386 221.949 92.9318 222.62 93.3182C223.296 93.7045 223.819 94.2642 224.188 94.9972C224.563 95.7301 224.748 96.6193 224.742 97.6648V106H221.657V98.142C221.657 97.267 221.429 96.5824 220.975 96.0881C220.526 95.5937 219.904 95.3466 219.108 95.3466C218.569 95.3466 218.088 95.4659 217.668 95.7045C217.253 95.9375 216.926 96.2756 216.688 96.7188C216.455 97.1619 216.338 97.6989 216.338 98.3295ZM234.415 92.9091V95.2955H226.89V92.9091H234.415ZM228.748 89.7727H231.833V102.062C231.833 102.477 231.895 102.795 232.02 103.017C232.151 103.233 232.321 103.381 232.532 103.46C232.742 103.54 232.975 103.58 233.23 103.58C233.424 103.58 233.6 103.565 233.759 103.537C233.924 103.509 234.049 103.483 234.134 103.46L234.654 105.872C234.489 105.929 234.253 105.991 233.946 106.06C233.645 106.128 233.276 106.168 232.838 106.179C232.066 106.202 231.37 106.085 230.75 105.83C230.131 105.568 229.64 105.165 229.276 104.619C228.918 104.074 228.742 103.392 228.748 102.574V89.7727ZM242.565 106.256C241.287 106.256 240.179 105.974 239.241 105.412C238.304 104.849 237.576 104.062 237.059 103.051C236.548 102.04 236.292 100.858 236.292 99.5057C236.292 98.1534 236.548 96.9687 237.059 95.9517C237.576 94.9347 238.304 94.1449 239.241 93.5824C240.179 93.0199 241.287 92.7386 242.565 92.7386C243.843 92.7386 244.951 93.0199 245.889 93.5824C246.826 94.1449 247.551 94.9347 248.062 95.9517C248.579 96.9687 248.838 98.1534 248.838 99.5057C248.838 100.858 248.579 102.04 248.062 103.051C247.551 104.062 246.826 104.849 245.889 105.412C244.951 105.974 243.843 106.256 242.565 106.256ZM242.582 103.784C243.275 103.784 243.855 103.594 244.321 103.213C244.787 102.827 245.133 102.31 245.36 101.662C245.593 101.014 245.71 100.293 245.71 99.4972C245.71 98.696 245.593 97.9716 245.36 97.3239C245.133 96.6705 244.787 96.1506 244.321 95.7642C243.855 95.3778 243.275 95.1847 242.582 95.1847C241.872 95.1847 241.281 95.3778 240.809 95.7642C240.343 96.1506 239.994 96.6705 239.761 97.3239C239.534 97.9716 239.42 98.696 239.42 99.4972C239.42 100.293 239.534 101.014 239.761 101.662C239.994 102.31 240.343 102.827 240.809 103.213C241.281 103.594 241.872 103.784 242.582 103.784Z" fill="#404040"/>
    <path d="M38 95.4173V70.8757C38 70.5331 38.1317 70.2045 38.3661 69.9623C38.6005 69.7201 38.9185 69.584 39.25 69.584H56.75C57.0815 69.584 57.3995 69.7201 57.6339 69.9623C57.8683 70.2045 58 70.5331 58 70.8757V95.4173L48 90.0743L38 95.4173Z" stroke="#404040" stroke-width="3" stroke-linejoin="round"/>
    <path d="M43 78.625H53" stroke="#404040" stroke-width="3" stroke-linecap="round" stroke-linejoin="round"/>
    <rect x="27.5" y="61.5" width="41" height="41" rx="10.5" stroke="#404040" stroke-width="3"/>
</svg>
