<svg width="57" height="57" viewBox="0 0 57 57" fill="none" xmlns="http://www.w3.org/2000/svg">
    <path fill-rule="evenodd" clip-rule="evenodd" d="M26.9468 0.0435934C21.5984 0.411395 16.9849 1.94349 12.7672 4.75232C9.50441 6.92525 6.98401 9.42993 4.81304 12.657C2.23912 16.483 0.675398 20.7328 0.128033 25.3894C-0.0426778 26.8415 -0.0426778 30.2008 0.128033 31.6529C0.910716 38.312 3.88553 44.3697 8.62559 48.957C10.8333 51.0938 13.2186 52.776 15.8956 54.0845C17.8045 55.0177 19.0554 55.4985 20.8572 55.9922C23.5385 56.7268 25.6066 57 28.4876 57C33.1175 57 36.9126 56.1213 41.0795 54.0845C45.5874 51.8811 49.3505 48.5743 52.2244 44.291C53.3176 42.6617 54.6046 40.1678 55.2417 38.4442C56.935 33.8631 57.4219 28.77 56.6301 23.9188C54.6655 11.8805 45.1005 2.32721 33.0681 0.385623C31.0145 0.0542723 28.6846 -0.0759268 26.9468 0.0435934ZM30.4905 2.03098C36.9486 2.55968 42.7526 5.22742 47.2707 9.74414C53.8839 16.355 56.5128 25.8199 54.2687 34.9389C51.9426 44.3917 44.3634 51.9684 34.9074 54.2939C25.7855 56.5372 16.3175 53.9091 9.7044 47.2981C5.07753 42.6728 2.45092 36.8472 1.96734 30.1383C1.57497 24.6939 3.14465 18.7053 6.17256 14.0945C11.5678 5.87872 20.9057 1.24639 30.4905 2.03098ZM26.6901 9.59166C24.4261 9.854 21.9291 10.5142 21.4309 10.9823C21.0766 11.3149 21.1059 11.9163 21.4951 12.3055C21.8689 12.6792 22.0232 12.679 23.1981 12.3027C24.8913 11.7605 26.0282 11.5723 27.974 11.5119C29.3914 11.4678 29.9995 11.4932 30.85 11.632C31.4432 11.7287 32.2092 11.8306 32.5523 11.8582C33.1573 11.907 33.1845 11.8984 33.4612 11.5697C33.6946 11.2924 33.7358 11.1645 33.6883 10.8657C33.5775 10.1694 33.159 9.98389 31.0041 9.67585C30.091 9.54535 27.5227 9.49524 26.6901 9.59166ZM16.4584 14.5369L16.1105 14.8476L16.0777 18.989C16.0597 21.2667 16.0758 23.3825 16.1135 23.6905C16.181 24.2442 16.1979 24.2669 17.5608 25.6511L18.9396 27.0517L18.522 35.3431C18.1383 42.9632 18.117 43.6774 18.2589 44.1639C18.6589 45.5354 19.6935 46.4116 21.0843 46.557C22.792 46.7354 24.4077 45.3821 24.5474 43.6563C24.5743 43.323 24.4118 39.4463 24.1863 35.0413L23.7761 27.0323L25.147 25.6461C26.2324 24.5487 26.5316 24.185 26.5832 23.9005C26.6192 23.7028 26.6348 21.5851 26.6179 19.1943L26.5873 14.8476L26.2394 14.537C25.9458 14.2747 25.8336 14.2354 25.5204 14.2853C25.3027 14.3199 25.0538 14.4541 24.9182 14.6102L24.6871 14.8761V19.1075V23.3388L23.3961 24.6208C22.686 25.3259 22.0362 26.0328 21.9522 26.1916C21.8149 26.4508 21.8428 27.347 22.2234 34.9154C22.4567 39.5546 22.6196 43.4995 22.5854 43.6819C22.5095 44.0861 22.0359 44.5071 21.5558 44.5971C21.0923 44.6841 20.4922 44.3902 20.2407 43.9533C20.0552 43.631 20.0601 43.4489 20.4694 35.3795C20.6994 30.845 20.8874 26.9306 20.8871 26.6808C20.8867 26.2346 20.8615 26.2014 19.4487 24.7769L18.0107 23.3269V19.1015V14.8761L17.7796 14.6102C17.644 14.4541 17.3951 14.3199 17.1774 14.2853C16.8642 14.2355 16.752 14.2747 16.4584 14.5369ZM19.4798 14.3714C18.9489 14.6278 18.9259 14.84 18.9573 19.1828L18.9865 23.1988L19.3219 23.4983C19.5064 23.663 19.7514 23.7978 19.8662 23.7978C20.1618 23.7978 20.656 23.5236 20.7809 23.2901C20.8484 23.1642 20.8867 21.6178 20.8867 19.0232C20.8867 16.4285 20.8484 14.8822 20.7809 14.7563C20.658 14.5266 20.1579 14.2454 19.8904 14.2555C19.7887 14.2593 19.6039 14.3115 19.4798 14.3714ZM22.336 14.3919C21.8265 14.6741 21.8186 14.7432 21.8147 18.9927C21.8122 21.862 21.8452 23.0416 21.9339 23.236C22.0596 23.5118 22.4939 23.7978 22.7869 23.7978C23.08 23.7978 23.5142 23.5118 23.64 23.236C23.7283 23.0421 23.7627 21.8619 23.7627 19.0232C23.7627 14.7835 23.7487 14.6608 23.2342 14.3948C22.887 14.2154 22.6559 14.2145 22.336 14.3919ZM34.523 14.3939C33.033 14.825 31.9663 15.828 31.4576 17.2767C31.0181 18.5283 30.5516 20.4261 30.4333 21.4437C30.2886 22.6872 30.4303 24.3136 30.76 25.1945C31.0877 26.0698 31.7404 26.9563 32.4333 27.4667C33.0369 27.9112 33.0575 27.9417 33.0344 28.3524C33.0213 28.5864 32.8641 32.1509 32.6852 36.2735C32.3774 43.3636 32.369 43.8005 32.5289 44.3479C32.7485 45.1002 33.4277 45.866 34.2183 46.2527C34.9892 46.6298 36.1867 46.6601 36.9227 46.3212C37.9623 45.8426 38.7312 44.8151 38.8237 43.7808C38.8496 43.4921 38.71 39.8134 38.5135 35.6061L38.1564 27.9564L38.3688 27.8024C38.4857 27.7177 38.8787 27.3721 39.2425 27.0346C40.4765 25.889 40.8785 24.5932 40.7883 22.0522C40.7384 20.6481 40.6245 20.0502 40.0251 18.0477C39.5003 16.2941 38.6769 15.2431 37.3606 14.6465C36.5438 14.2763 35.3096 14.1664 34.523 14.3939ZM41.9387 16.0036C41.63 16.1172 41.3268 16.5875 41.3268 16.953C41.3268 17.1133 41.5751 17.5401 41.9747 18.0667C43.6951 20.3344 44.7893 22.7813 45.2952 25.4921C45.585 27.0452 45.5612 30.2264 45.2485 31.7339C44.55 35.1012 43.3222 37.5012 40.8635 40.3049C40.4146 40.8167 40.2997 41.0196 40.2997 41.3002C40.2997 41.7708 40.6529 42.1673 41.1415 42.245C41.4961 42.3014 41.5625 42.2661 42.1467 41.709C42.8286 41.0587 44.0229 39.5378 44.6839 38.478C45.9176 36.4995 46.7743 34.2196 47.2486 31.6529C47.54 30.0757 47.5094 26.6328 47.1896 25.03C46.7449 22.8006 45.8399 20.4436 44.7453 18.6638C43.9686 17.4007 43.0449 16.222 42.698 16.051C42.3342 15.8716 42.3031 15.8696 41.9387 16.0036ZM36.2856 16.2998C36.8175 16.4523 37.4091 16.9079 37.6797 17.3731C37.9536 17.8441 38.588 19.9489 38.7686 20.9863C38.838 21.3844 38.8682 22.2162 38.8408 22.9741C38.8013 24.0689 38.7554 24.3565 38.5536 24.7733C38.2602 25.3791 37.6288 26.0089 37.0222 26.3009C36.7731 26.4208 36.4801 26.6394 36.371 26.7868C36.1746 27.052 36.1763 27.1341 36.5502 35.3909C36.8981 43.0745 36.9147 43.7468 36.7634 43.9777C36.382 44.5597 35.6322 44.7763 35.0141 44.483C34.2472 44.1192 34.2659 44.6301 34.6813 35.3861C34.9762 28.8252 35.0266 27.0908 34.9282 26.8865C34.8602 26.7453 34.5272 26.4745 34.1882 26.2848C33.8492 26.0951 33.4432 25.8174 33.286 25.6677C32.5279 24.9463 32.1589 23.2602 32.3806 21.5314C32.5066 20.5499 33.1639 18.1257 33.4646 17.5343C33.9987 16.4838 35.1578 15.9764 36.2856 16.2998ZM13.4008 17.0855C12.7835 17.5178 11.1749 20.4228 10.5272 22.275C8.21699 28.8828 9.83628 36.508 14.6067 41.4846C15.2185 42.1228 15.3049 42.1776 15.6986 42.1776C16.2654 42.1776 16.6194 41.8233 16.6194 41.2561C16.6194 40.9223 16.5341 40.7645 16.0812 40.2607C13.5083 37.3984 12.1786 34.6257 11.584 30.8828C11.3598 29.4725 11.4323 26.6717 11.7298 25.2353C12.1785 23.0704 13.0122 21.03 14.2023 19.1845C14.9396 18.041 14.9976 17.6895 14.5263 17.2184C14.1837 16.8758 13.77 16.8269 13.4008 17.0855ZM25.8074 45.6895C25.4446 45.9102 25.3044 46.5049 25.5231 46.895C25.7843 47.3609 26.1416 47.4485 27.974 47.4968C30.0773 47.5523 31.0116 47.429 31.3379 47.053C31.7171 46.6162 31.6153 45.9134 31.1355 45.6567C30.9859 45.5767 30.1181 45.5336 28.5036 45.5261C26.4035 45.5162 26.0582 45.5371 25.8074 45.6895Z" fill="#404040"/>
</svg>
