<svg width="266" height="145" viewBox="0 0 266 145" fill="none" xmlns="http://www.w3.org/2000/svg">
    <rect x="1.5" y="1.5" width="263" height="142" rx="7.5" fill="white" stroke="white" stroke-width="3"/>
    <path d="M109.796 71V53.5455H121.148V56.196H112.958V60.9347H120.56V63.5852H112.958V68.3494H121.216V71H109.796ZM130.775 57.9091V60.2955H123.249V57.9091H130.775ZM125.107 54.7727H128.192V67.0625C128.192 67.4773 128.255 67.7955 128.38 68.017C128.51 68.233 128.681 68.3807 128.891 68.4602C129.101 68.5398 129.334 68.5795 129.59 68.5795C129.783 68.5795 129.959 68.5653 130.118 68.5369C130.283 68.5085 130.408 68.483 130.493 68.4602L131.013 70.8722C130.848 70.929 130.613 70.9915 130.306 71.0597C130.005 71.1278 129.635 71.1676 129.198 71.179C128.425 71.2017 127.729 71.0852 127.11 70.8295C126.49 70.5682 125.999 70.1648 125.635 69.6193C125.277 69.0739 125.101 68.392 125.107 67.5739V54.7727ZM133.355 71V57.9091H136.44V71H133.355ZM134.906 56.0511C134.417 56.0511 133.997 55.8892 133.645 55.5653C133.292 55.2358 133.116 54.8409 133.116 54.3807C133.116 53.9148 133.292 53.5199 133.645 53.196C133.997 52.8665 134.417 52.7017 134.906 52.7017C135.4 52.7017 135.821 52.8665 136.167 53.196C136.52 53.5199 136.696 53.9148 136.696 54.3807C136.696 54.8409 136.52 55.2358 136.167 55.5653C135.821 55.8892 135.4 56.0511 134.906 56.0511ZM148.348 75.9091V68.9375H148.221C148.061 69.2557 147.831 69.5937 147.53 69.9517C147.229 70.304 146.831 70.6051 146.337 70.8551C145.843 71.1051 145.221 71.2301 144.471 71.2301C143.442 71.2301 142.522 70.9659 141.709 70.4375C140.897 69.9091 140.255 69.142 139.783 68.1364C139.311 67.1307 139.076 65.9091 139.076 64.4716C139.076 63.017 139.314 61.7898 139.792 60.7898C140.275 59.7841 140.925 59.0256 141.743 58.5142C142.561 57.9972 143.473 57.7386 144.479 57.7386C145.246 57.7386 145.877 57.8693 146.371 58.1307C146.865 58.3864 147.257 58.696 147.547 59.0597C147.837 59.4176 148.061 59.7557 148.221 60.0739H148.408V57.9091H151.442V75.9091H148.348ZM145.331 68.6989C145.985 68.6989 146.542 68.5227 147.002 68.1705C147.462 67.8125 147.811 67.3153 148.05 66.679C148.289 66.0426 148.408 65.3011 148.408 64.4545C148.408 63.608 148.289 62.8722 148.05 62.2472C147.817 61.6222 147.471 61.1364 147.01 60.7898C146.556 60.4432 145.996 60.2699 145.331 60.2699C144.644 60.2699 144.07 60.4489 143.61 60.8068C143.15 61.1648 142.803 61.6591 142.57 62.2898C142.337 62.9205 142.221 63.642 142.221 64.4545C142.221 65.2727 142.337 66.0028 142.57 66.6449C142.809 67.2812 143.158 67.7841 143.618 68.1534C144.084 68.517 144.655 68.6989 145.331 68.6989ZM162.956 65.4943V57.9091H166.042V71H163.05V68.6733H162.914C162.618 69.4062 162.132 70.0057 161.456 70.4716C160.786 70.9375 159.959 71.1705 158.976 71.1705C158.118 71.1705 157.36 70.9801 156.701 70.5994C156.047 70.2131 155.536 69.6534 155.167 68.9205C154.797 68.1818 154.613 67.2898 154.613 66.2443V57.9091H157.698V65.767C157.698 66.5966 157.925 67.2557 158.38 67.7443C158.834 68.233 159.431 68.4773 160.169 68.4773C160.624 68.4773 161.064 68.3665 161.49 68.1449C161.917 67.9233 162.266 67.5938 162.539 67.1562C162.817 66.7131 162.956 66.1591 162.956 65.4943ZM175.01 71.2557C173.697 71.2557 172.564 70.983 171.609 70.4375C170.66 69.8864 169.93 69.108 169.419 68.1023C168.907 67.0909 168.652 65.9006 168.652 64.5312C168.652 63.1847 168.907 62.0028 169.419 60.9858C169.936 59.9631 170.657 59.1676 171.583 58.5994C172.51 58.0256 173.598 57.7386 174.848 57.7386C175.654 57.7386 176.416 57.8693 177.132 58.1307C177.853 58.3864 178.49 58.7841 179.041 59.3239C179.598 59.8636 180.035 60.5511 180.353 61.3864C180.672 62.2159 180.831 63.2045 180.831 64.3523V65.2983H170.1V63.2188H177.873C177.868 62.6278 177.74 62.1023 177.49 61.642C177.24 61.1761 176.89 60.8097 176.441 60.5426C175.998 60.2756 175.481 60.142 174.89 60.142C174.26 60.142 173.706 60.2955 173.228 60.6023C172.751 60.9034 172.379 61.3011 172.112 61.7955C171.85 62.2841 171.717 62.821 171.711 63.4062V65.2216C171.711 65.983 171.85 66.6364 172.129 67.1818C172.407 67.7216 172.797 68.1364 173.297 68.4261C173.797 68.7102 174.382 68.8523 175.052 68.8523C175.501 68.8523 175.907 68.7898 176.271 68.6648C176.635 68.5341 176.95 68.3438 177.217 68.0938C177.484 67.8438 177.686 67.5341 177.822 67.1648L180.703 67.4886C180.521 68.25 180.174 68.9148 179.663 69.483C179.157 70.0455 178.51 70.483 177.72 70.7955C176.93 71.1023 176.027 71.2557 175.01 71.2557ZM189.978 57.9091V60.2955H182.452V57.9091H189.978ZM184.31 54.7727H187.395V67.0625C187.395 67.4773 187.458 67.7955 187.583 68.017C187.713 68.233 187.884 68.3807 188.094 68.4602C188.304 68.5398 188.537 68.5795 188.793 68.5795C188.986 68.5795 189.162 68.5653 189.321 68.5369C189.486 68.5085 189.611 68.483 189.696 68.4602L190.216 70.8722C190.051 70.929 189.816 70.9915 189.509 71.0597C189.208 71.1278 188.838 71.1676 188.401 71.179C187.628 71.2017 186.932 71.0852 186.313 70.8295C185.694 70.5682 185.202 70.1648 184.838 69.6193C184.48 69.0739 184.304 68.392 184.31 67.5739V54.7727ZM196.325 71.2642C195.495 71.2642 194.748 71.1165 194.083 70.821C193.424 70.5199 192.902 70.0767 192.515 69.4915C192.135 68.9062 191.944 68.1847 191.944 67.3267C191.944 66.5881 192.081 65.9773 192.353 65.4943C192.626 65.0114 192.998 64.625 193.47 64.3352C193.941 64.0455 194.473 63.8267 195.064 63.679C195.66 63.5256 196.277 63.4148 196.913 63.3466C197.68 63.267 198.302 63.196 198.779 63.1335C199.257 63.0653 199.603 62.9631 199.819 62.8267C200.041 62.6847 200.152 62.4659 200.152 62.1705V62.1193C200.152 61.4773 199.961 60.9801 199.581 60.6278C199.2 60.2756 198.652 60.0994 197.936 60.0994C197.18 60.0994 196.581 60.2642 196.137 60.5938C195.7 60.9233 195.404 61.3125 195.251 61.7614L192.37 61.3523C192.598 60.5568 192.973 59.892 193.495 59.358C194.018 58.8182 194.657 58.4148 195.413 58.1477C196.169 57.875 197.004 57.7386 197.919 57.7386C198.549 57.7386 199.177 57.8125 199.802 57.9602C200.427 58.108 200.998 58.3523 201.515 58.6932C202.032 59.0284 202.447 59.4858 202.76 60.0653C203.078 60.6449 203.237 61.3693 203.237 62.2386V71H200.271V69.2017H200.169C199.981 69.5653 199.717 69.9062 199.376 70.2244C199.041 70.5369 198.618 70.7898 198.106 70.983C197.6 71.1705 197.007 71.2642 196.325 71.2642ZM197.126 68.9972C197.745 68.9972 198.282 68.875 198.737 68.6307C199.191 68.3807 199.541 68.0511 199.785 67.642C200.035 67.233 200.16 66.7869 200.16 66.304V64.7614C200.064 64.8409 199.899 64.9148 199.666 64.983C199.439 65.0511 199.183 65.1108 198.899 65.1619C198.615 65.2131 198.333 65.2585 198.055 65.2983C197.777 65.3381 197.535 65.3722 197.331 65.4006C196.87 65.4631 196.458 65.5653 196.095 65.7074C195.731 65.8494 195.444 66.0483 195.234 66.304C195.024 66.554 194.919 66.8778 194.919 67.2756C194.919 67.8438 195.126 68.2727 195.541 68.5625C195.956 68.8523 196.484 68.9972 197.126 68.9972ZM216.686 61.3693L213.873 61.6761C213.794 61.392 213.654 61.125 213.456 60.875C213.262 60.625 213.001 60.4233 212.672 60.2699C212.342 60.1165 211.939 60.0398 211.461 60.0398C210.819 60.0398 210.279 60.179 209.842 60.4574C209.41 60.7358 209.197 61.0966 209.203 61.5398C209.197 61.9205 209.336 62.2301 209.62 62.4688C209.91 62.7074 210.387 62.9034 211.052 63.0568L213.285 63.5341C214.524 63.8011 215.444 64.2244 216.047 64.804C216.654 65.3835 216.961 66.142 216.967 67.0795C216.961 67.9034 216.72 68.6307 216.243 69.2614C215.771 69.8864 215.115 70.375 214.274 70.7273C213.433 71.0795 212.467 71.2557 211.376 71.2557C209.774 71.2557 208.484 70.9205 207.507 70.25C206.529 69.5739 205.947 68.6335 205.76 67.429L208.768 67.1392C208.904 67.7301 209.194 68.1761 209.637 68.4773C210.081 68.7784 210.657 68.929 211.368 68.929C212.1 68.929 212.689 68.7784 213.132 68.4773C213.581 68.1761 213.805 67.804 213.805 67.3608C213.805 66.9858 213.66 66.6761 213.37 66.4318C213.086 66.1875 212.643 66 212.041 65.8693L209.808 65.4006C208.552 65.1392 207.623 64.6989 207.021 64.0795C206.419 63.4545 206.12 62.6648 206.126 61.7102C206.12 60.9034 206.339 60.2045 206.782 59.6136C207.231 59.017 207.853 58.5568 208.649 58.233C209.45 57.9034 210.373 57.7386 211.419 57.7386C212.953 57.7386 214.16 58.0653 215.041 58.7188C215.927 59.3722 216.475 60.2557 216.686 61.3693ZM126.292 92.3295V100H123.206V82.5455H126.223V89.1335H126.377C126.684 88.3949 127.158 87.8125 127.8 87.3864C128.448 86.9545 129.272 86.7386 130.272 86.7386C131.181 86.7386 131.973 86.929 132.65 87.3097C133.326 87.6903 133.848 88.2472 134.218 88.9801C134.593 89.7131 134.78 90.608 134.78 91.6648V100H131.695V92.142C131.695 91.2614 131.468 90.5767 131.013 90.0881C130.564 89.5937 129.934 89.3466 129.121 89.3466C128.576 89.3466 128.087 89.4659 127.655 89.7045C127.229 89.9375 126.894 90.2756 126.65 90.7188C126.411 91.1619 126.292 91.6989 126.292 92.3295ZM143.635 100.256C142.357 100.256 141.249 99.9744 140.311 99.4119C139.374 98.8494 138.647 98.0625 138.13 97.0511C137.618 96.0398 137.363 94.858 137.363 93.5057C137.363 92.1534 137.618 90.9687 138.13 89.9517C138.647 88.9347 139.374 88.1449 140.311 87.5824C141.249 87.0199 142.357 86.7386 143.635 86.7386C144.914 86.7386 146.022 87.0199 146.959 87.5824C147.897 88.1449 148.621 88.9347 149.132 89.9517C149.65 90.9687 149.908 92.1534 149.908 93.5057C149.908 94.858 149.65 96.0398 149.132 97.0511C148.621 98.0625 147.897 98.8494 146.959 99.4119C146.022 99.9744 144.914 100.256 143.635 100.256ZM143.652 97.7841C144.346 97.7841 144.925 97.5937 145.391 97.2131C145.857 96.8267 146.203 96.3097 146.431 95.6619C146.664 95.0142 146.78 94.2926 146.78 93.4972C146.78 92.696 146.664 91.9716 146.431 91.3239C146.203 90.6705 145.857 90.1506 145.391 89.7642C144.925 89.3778 144.346 89.1847 143.652 89.1847C142.942 89.1847 142.351 89.3778 141.88 89.7642C141.414 90.1506 141.064 90.6705 140.831 91.3239C140.604 91.9716 140.49 92.696 140.49 93.4972C140.49 94.2926 140.604 95.0142 140.831 95.6619C141.064 96.3097 141.414 96.8267 141.88 97.2131C142.351 97.5937 142.942 97.7841 143.652 97.7841ZM152.527 100V86.9091H155.518V89.0909H155.654C155.893 88.3352 156.302 87.7528 156.882 87.3438C157.467 86.929 158.135 86.7216 158.885 86.7216C159.055 86.7216 159.245 86.7301 159.456 86.7472C159.672 86.7585 159.85 86.7784 159.993 86.8068V89.6449C159.862 89.5994 159.654 89.5597 159.37 89.5256C159.092 89.4858 158.822 89.4659 158.561 89.4659C157.998 89.4659 157.493 89.5881 157.044 89.8324C156.6 90.071 156.251 90.4034 155.995 90.8295C155.74 91.2557 155.612 91.7472 155.612 92.304V100H152.527ZM165.575 100.264C164.745 100.264 163.998 100.116 163.333 99.821C162.674 99.5199 162.152 99.0767 161.765 98.4915C161.385 97.9062 161.194 97.1847 161.194 96.3267C161.194 95.5881 161.331 94.9773 161.603 94.4943C161.876 94.0114 162.248 93.625 162.72 93.3352C163.191 93.0455 163.723 92.8267 164.314 92.679C164.91 92.5256 165.527 92.4148 166.163 92.3466C166.93 92.267 167.552 92.196 168.029 92.1335C168.507 92.0653 168.853 91.9631 169.069 91.8267C169.291 91.6847 169.402 91.4659 169.402 91.1705V91.1193C169.402 90.4773 169.211 89.9801 168.831 89.6278C168.45 89.2756 167.902 89.0994 167.186 89.0994C166.43 89.0994 165.831 89.2642 165.387 89.5938C164.95 89.9233 164.654 90.3125 164.501 90.7614L161.62 90.3523C161.848 89.5568 162.223 88.892 162.745 88.358C163.268 87.8182 163.907 87.4148 164.663 87.1477C165.419 86.875 166.254 86.7386 167.169 86.7386C167.799 86.7386 168.427 86.8125 169.052 86.9602C169.677 87.108 170.248 87.3523 170.765 87.6932C171.282 88.0284 171.697 88.4858 172.01 89.0653C172.328 89.6449 172.487 90.3693 172.487 91.2386V100H169.521V98.2017H169.419C169.231 98.5653 168.967 98.9062 168.626 99.2244C168.291 99.5369 167.868 99.7898 167.356 99.983C166.85 100.17 166.257 100.264 165.575 100.264ZM166.376 97.9972C166.995 97.9972 167.532 97.875 167.987 97.6307C168.441 97.3807 168.791 97.0511 169.035 96.642C169.285 96.233 169.41 95.7869 169.41 95.304V93.7614C169.314 93.8409 169.149 93.9148 168.916 93.983C168.689 94.0511 168.433 94.1108 168.149 94.1619C167.865 94.2131 167.583 94.2585 167.305 94.2983C167.027 94.3381 166.785 94.3722 166.581 94.4006C166.12 94.4631 165.708 94.5653 165.345 94.7074C164.981 94.8494 164.694 95.0483 164.484 95.304C164.274 95.554 164.169 95.8778 164.169 96.2756C164.169 96.8438 164.376 97.2727 164.791 97.5625C165.206 97.8523 165.734 97.9972 166.376 97.9972ZM166.12 85.1875L168.029 81.2926H171.047L168.43 85.1875H166.12ZM175.589 100V86.9091H178.581V89.0909H178.717C178.956 88.3352 179.365 87.7528 179.944 87.3438C180.529 86.929 181.197 86.7216 181.947 86.7216C182.118 86.7216 182.308 86.7301 182.518 86.7472C182.734 86.7585 182.913 86.7784 183.055 86.8068V89.6449C182.924 89.5994 182.717 89.5597 182.433 89.5256C182.154 89.4858 181.885 89.4659 181.623 89.4659C181.061 89.4659 180.555 89.5881 180.106 89.8324C179.663 90.071 179.314 90.4034 179.058 90.8295C178.802 91.2557 178.674 91.7472 178.674 92.304V100H175.589ZM185.105 100V86.9091H188.19V100H185.105ZM186.656 85.0511C186.167 85.0511 185.747 84.8892 185.395 84.5653C185.042 84.2358 184.866 83.8409 184.866 83.3807C184.866 82.9148 185.042 82.5199 185.395 82.196C185.747 81.8665 186.167 81.7017 186.656 81.7017C187.15 81.7017 187.571 81.8665 187.917 82.196C188.27 82.5199 188.446 82.9148 188.446 83.3807C188.446 83.8409 188.27 84.2358 187.917 84.5653C187.571 84.8892 187.15 85.0511 186.656 85.0511ZM197.073 100.256C195.794 100.256 194.686 99.9744 193.749 99.4119C192.811 98.8494 192.084 98.0625 191.567 97.0511C191.056 96.0398 190.8 94.858 190.8 93.5057C190.8 92.1534 191.056 90.9687 191.567 89.9517C192.084 88.9347 192.811 88.1449 193.749 87.5824C194.686 87.0199 195.794 86.7386 197.073 86.7386C198.351 86.7386 199.459 87.0199 200.397 87.5824C201.334 88.1449 202.059 88.9347 202.57 89.9517C203.087 90.9687 203.346 92.1534 203.346 93.5057C203.346 94.858 203.087 96.0398 202.57 97.0511C202.059 98.0625 201.334 98.8494 200.397 99.4119C199.459 99.9744 198.351 100.256 197.073 100.256ZM197.09 97.7841C197.783 97.7841 198.363 97.5937 198.828 97.2131C199.294 96.8267 199.641 96.3097 199.868 95.6619C200.101 95.0142 200.218 94.2926 200.218 93.4972C200.218 92.696 200.101 91.9716 199.868 91.3239C199.641 90.6705 199.294 90.1506 198.828 89.7642C198.363 89.3778 197.783 89.1847 197.09 89.1847C196.38 89.1847 195.789 89.3778 195.317 89.7642C194.851 90.1506 194.502 90.6705 194.269 91.3239C194.042 91.9716 193.928 92.696 193.928 93.4972C193.928 94.2926 194.042 95.0142 194.269 95.6619C194.502 96.3097 194.851 96.8267 195.317 97.2131C195.789 97.5937 196.38 97.7841 197.09 97.7841Z" fill="#404040"/>
    <path d="M36.333 94.5V61.25C36.333 60.7859 36.4998 60.3408 36.7968 60.0126C37.0937 59.6844 37.4964 59.5 37.9163 59.5H60.083C60.5029 59.5 60.9057 59.6844 61.2026 60.0126C61.4995 60.3408 61.6663 60.7859 61.6663 61.25V94.5L48.9997 87.2611L36.333 94.5Z" stroke="#404040" stroke-width="4" stroke-linejoin="round"/>
    <path d="M42.666 71.75H55.3327" stroke="#404040" stroke-width="4" stroke-linecap="round" stroke-linejoin="round"/>
</svg>
