<svg width="129" height="129" viewBox="0 0 129 129" fill="none" xmlns="http://www.w3.org/2000/svg">
    <path d="M32.2504 38.7004C32.2504 31.8578 34.9686 25.2955 39.807 20.457C44.6455 15.6186 51.2078 12.9004 58.0504 12.9004C64.893 12.9004 71.4553 15.6186 76.2938 20.457C81.1322 25.2955 83.8504 31.8578 83.8504 38.7004C83.8504 45.543 81.1322 52.1053 76.2938 56.9437C71.4553 61.7822 64.893 64.5004 58.0504 64.5004C51.2078 64.5004 44.6455 61.7822 39.807 56.9437C34.9686 52.1053 32.2504 45.543 32.2504 38.7004ZM12.9004 83.8504C12.9004 76.6715 18.7247 70.9504 25.8584 70.9504H66.158C60.9053 77.2995 58.0373 85.2851 58.0504 93.5254C58.0504 101.93 60.9722 109.65 65.8549 115.733C63.3071 115.978 60.6949 116.1 58.0504 116.1C46.0856 116.1 34.94 113.611 26.6711 108.341C18.2732 102.988 12.9004 94.7509 12.9004 83.8504ZM122.55 93.5254C122.55 101.223 119.492 108.606 114.049 114.049C108.606 119.492 101.223 122.55 93.5254 122.55C85.8275 122.55 78.4449 119.492 73.0016 114.049C67.5584 108.606 64.5004 101.223 64.5004 93.5254C64.5004 85.8275 67.5584 78.4449 73.0016 73.0016C78.4449 67.5584 85.8275 64.5004 93.5254 64.5004C101.223 64.5004 108.606 67.5584 114.049 73.0016C119.492 78.4449 122.55 85.8275 122.55 93.5254ZM105.484 86.1337C106.089 85.5281 106.429 84.7068 106.429 83.8504C106.429 82.994 106.089 82.1727 105.484 81.5671C104.878 80.9615 104.057 80.6213 103.2 80.6213C102.344 80.6213 101.523 80.9615 100.917 81.5671L93.5254 88.9652L86.1337 81.5671C85.5281 80.9615 84.7068 80.6213 83.8504 80.6213C82.994 80.6213 82.1727 80.9615 81.5671 81.5671C80.9615 82.1727 80.6213 82.994 80.6213 83.8504C80.6213 84.7068 80.9615 85.5281 81.5671 86.1337L88.9652 93.5254L81.5671 100.917C81.2672 101.217 81.0294 101.573 80.8671 101.965C80.7048 102.356 80.6213 102.776 80.6213 103.2C80.6213 103.624 80.7048 104.044 80.8671 104.436C81.0294 104.828 81.2672 105.184 81.5671 105.484C81.8669 105.784 82.2229 106.021 82.6147 106.184C83.0064 106.346 83.4263 106.429 83.8504 106.429C84.2744 106.429 84.6943 106.346 85.0861 106.184C85.4779 106.021 85.8338 105.784 86.1337 105.484L93.5254 98.0855L100.917 105.484C101.217 105.784 101.573 106.021 101.965 106.184C102.356 106.346 102.776 106.429 103.2 106.429C103.624 106.429 104.044 106.346 104.436 106.184C104.828 106.021 105.184 105.784 105.484 105.484C105.784 105.184 106.021 104.828 106.184 104.436C106.346 104.044 106.429 103.624 106.429 103.2C106.429 102.776 106.346 102.356 106.184 101.965C106.021 101.573 105.784 101.217 105.484 100.917L98.0855 93.5254L105.484 86.1337Z" fill="#005BA5"/>
</svg>
