<svg width="129" height="129" viewBox="0 0 129 129" fill="none" xmlns="http://www.w3.org/2000/svg">
    <path d="M96.7501 73.7148C100.416 73.7148 103.931 75.171 106.523 77.763C109.115 80.3551 110.572 83.8706 110.572 87.5363V90.8304C110.572 107.31 91.1755 119.786 64.5001 119.786C37.8248 119.786 18.4287 107.96 18.4287 90.8304V87.5363C18.4287 83.8706 19.8849 80.3551 22.4769 77.763C25.0689 75.171 28.5845 73.7148 32.2501 73.7148H96.7501ZM64.5001 9.21484C68.1302 9.21484 71.7248 9.92985 75.0786 11.319C78.4324 12.7082 81.4797 14.7444 84.0466 17.3112C86.6135 19.8781 88.6496 22.9255 90.0388 26.2792C91.428 29.633 92.143 33.2276 92.143 36.8577C92.143 40.4878 91.428 44.0824 90.0388 47.4362C88.6496 50.79 86.6135 53.8373 84.0466 56.4042C81.4797 58.971 78.4324 61.0072 75.0786 62.3964C71.7248 63.7856 68.1302 64.5006 64.5001 64.5006C57.1688 64.5006 50.1377 61.5882 44.9537 56.4042C39.7696 51.2201 36.8573 44.189 36.8573 36.8577C36.8573 29.5264 39.7696 22.4953 44.9537 17.3112C50.1377 12.1272 57.1688 9.21484 64.5001 9.21484Z" fill="#005BA5"/>
</svg>
